<svg width="32" height="32" viewBox="0 0 32 32" fill="none" xmlns="http://www.w3.org/2000/svg">
<path d="M15.0841 29.551C15.3466 29.6958 15.6422 29.7699 15.942 29.7661C16.2417 29.7622 16.5354 29.6805 16.7941 29.529C20.3731 27.484 26.5911 22.776 29.0341 16.66C32.6181 8.69701 24.2011 2.34001 18.3841 6.91201C17.7771 7.38901 17.0141 7.93401 16.4891 8.45201C16.2511 8.68501 15.8321 8.70901 15.5851 8.48501C14.8951 7.85701 13.8171 7.05101 13.1241 6.58301C8.16406 3.22701 -0.85994 7.65001 2.98906 17.09C4.39906 21.327 11.1191 27.338 15.0841 29.551Z" fill="url(#paint0_radial_6_309)"/>
<path d="M15.0841 29.551C15.3466 29.6958 15.6422 29.7699 15.942 29.7661C16.2417 29.7622 16.5354 29.6805 16.7941 29.529C20.3731 27.484 26.5911 22.776 29.0341 16.66C32.6181 8.69701 24.2011 2.34001 18.3841 6.91201C17.7771 7.38901 17.0141 7.93401 16.4891 8.45201C16.2511 8.68501 15.8321 8.70901 15.5851 8.48501C14.8951 7.85701 13.8171 7.05101 13.1241 6.58301C8.16406 3.22701 -0.85994 7.65001 2.98906 17.09C4.39906 21.327 11.1191 27.338 15.0841 29.551Z" fill="url(#paint1_radial_6_309)"/>
<path d="M15.0841 29.551C15.3466 29.6958 15.6422 29.7699 15.942 29.7661C16.2417 29.7622 16.5354 29.6805 16.7941 29.529C20.3731 27.484 26.5911 22.776 29.0341 16.66C32.6181 8.69701 24.2011 2.34001 18.3841 6.91201C17.7771 7.38901 17.0141 7.93401 16.4891 8.45201C16.2511 8.68501 15.8321 8.70901 15.5851 8.48501C14.8951 7.85701 13.8171 7.05101 13.1241 6.58301C8.16406 3.22701 -0.85994 7.65001 2.98906 17.09C4.39906 21.327 11.1191 27.338 15.0841 29.551Z" fill="url(#paint2_radial_6_309)"/>
<path d="M15.0841 29.551C15.3466 29.6958 15.6422 29.7699 15.942 29.7661C16.2417 29.7622 16.5354 29.6805 16.7941 29.529C20.3731 27.484 26.5911 22.776 29.0341 16.66C32.6181 8.69701 24.2011 2.34001 18.3841 6.91201C17.7771 7.38901 17.0141 7.93401 16.4891 8.45201C16.2511 8.68501 15.8321 8.70901 15.5851 8.48501C14.8951 7.85701 13.8171 7.05101 13.1241 6.58301C8.16406 3.22701 -0.85994 7.65001 2.98906 17.09C4.39906 21.327 11.1191 27.338 15.0841 29.551Z" fill="url(#paint3_radial_6_309)"/>
<path d="M15.0841 29.551C15.3466 29.6958 15.6422 29.7699 15.942 29.7661C16.2417 29.7622 16.5354 29.6805 16.7941 29.529C20.3731 27.484 26.5911 22.776 29.0341 16.66C32.6181 8.69701 24.2011 2.34001 18.3841 6.91201C17.7771 7.38901 17.0141 7.93401 16.4891 8.45201C16.2511 8.68501 15.8321 8.70901 15.5851 8.48501C14.8951 7.85701 13.8171 7.05101 13.1241 6.58301C8.16406 3.22701 -0.85994 7.65001 2.98906 17.09C4.39906 21.327 11.1191 27.338 15.0841 29.551Z" fill="url(#paint4_linear_6_309)"/>
<path d="M15.0841 29.551C15.3466 29.6958 15.6422 29.7699 15.942 29.7661C16.2417 29.7622 16.5354 29.6805 16.7941 29.529C20.3731 27.484 26.5911 22.776 29.0341 16.66C32.6181 8.69701 24.2011 2.34001 18.3841 6.91201C17.7771 7.38901 17.0141 7.93401 16.4891 8.45201C16.2511 8.68501 15.8321 8.70901 15.5851 8.48501C14.8951 7.85701 13.8171 7.05101 13.1241 6.58301C8.16406 3.22701 -0.85994 7.65001 2.98906 17.09C4.39906 21.327 11.1191 27.338 15.0841 29.551Z" fill="url(#paint5_linear_6_309)"/>
<path d="M16.013 8.89601C16.905 9.70301 18.28 9.46901 19.033 8.53001C20.177 7.10501 21.799 5.63701 23.948 5.50001C22.123 5.15001 20.136 5.53501 18.383 6.91201C18.2317 7.03068 18.0737 7.15268 17.909 7.27801C17.424 7.64901 16.909 8.04401 16.517 8.42401C16.263 8.67001 15.819 8.69501 15.557 8.45901L15.436 8.35101C15.585 8.50101 15.788 8.69201 16.013 8.89601Z" fill="url(#paint6_linear_6_309)"/>
<g filter="url(#filter0_f_6_309)">
<path d="M16.566 12.119V18.309C16.566 21.023 19.436 21.93 20.31 19.359C21.057 17.159 21.375 14.789 20.733 12.722C20.298 11.322 19.247 10.555 18.261 10.287C17.224 10.005 16.566 11.043 16.566 12.119Z" fill="#FA1C56"/>
</g>
<g filter="url(#filter1_f_6_309)">
<path d="M26.7013 13.6324C28.3479 12.0318 28.7899 9.81569 27.6885 8.68272C26.5871 7.54974 24.3595 7.9289 22.7129 9.52958C21.0663 11.1303 20.6243 13.3463 21.7257 14.4793C22.8271 15.6123 25.0547 15.2331 26.7013 13.6324Z" fill="url(#paint7_radial_6_309)"/>
</g>
<g filter="url(#filter2_f_6_309)">
<path d="M14.6919 9.38827C13.2482 7.6025 11.0817 6.96017 9.85292 7.95358C8.62418 8.947 8.7985 11.2 10.2423 12.9858C11.686 14.7715 13.8525 15.4139 15.0813 14.4204C16.31 13.427 16.1357 11.174 14.6919 9.38827Z" fill="url(#paint8_radial_6_309)" fill-opacity="0.5"/>
</g>
<g filter="url(#filter3_f_6_309)">
<path d="M8.95303 20.244L8.39403 17.005C8.24503 16.544 7.91003 16.49 7.72203 16.802L5.67603 21.1L8.95303 20.244Z" fill="#A71135"/>
</g>
<path d="M6.76811 20.11C6.71279 20.2812 6.62117 20.4385 6.4995 20.571C6.37782 20.7036 6.22897 20.8083 6.06311 20.878L3.42811 21.985C3.33732 22.0231 3.2598 22.0872 3.20529 22.1692C3.15078 22.2512 3.1217 22.3475 3.1217 22.446C3.1217 22.5445 3.15078 22.6408 3.20529 22.7228C3.2598 22.8048 3.33732 22.8689 3.42811 22.907L6.07511 24.02C6.41111 24.161 6.66911 24.443 6.78011 24.79L7.95011 28.427C7.98251 28.5278 8.04606 28.6157 8.1316 28.678C8.21714 28.7404 8.32026 28.774 8.42611 28.774C8.53196 28.774 8.63508 28.7404 8.72062 28.678C8.80616 28.6157 8.86971 28.5278 8.90211 28.427L10.0671 24.801C10.1222 24.63 10.2135 24.4729 10.3348 24.3403C10.4562 24.2078 10.6046 24.103 10.7701 24.033L13.4311 22.907C13.5216 22.8687 13.5988 22.8046 13.6531 22.7227C13.7074 22.6408 13.7363 22.5448 13.7363 22.4465C13.7363 22.3482 13.7074 22.2522 13.6531 22.1703C13.5988 22.0884 13.5216 22.0243 13.4311 21.986L10.7821 20.865C10.617 20.7951 10.4689 20.6906 10.3478 20.5584C10.2266 20.4262 10.1353 20.2696 10.0801 20.099L8.90011 16.456C8.86747 16.3556 8.80388 16.2681 8.71846 16.2061C8.63305 16.144 8.53018 16.1106 8.42461 16.1106C8.31904 16.1106 8.21617 16.144 8.13075 16.2061C8.04534 16.2681 7.98175 16.3556 7.94911 16.456L6.76811 20.11Z" fill="url(#paint9_linear_6_309)"/>
<path d="M6.76811 20.11C6.71279 20.2812 6.62117 20.4385 6.4995 20.571C6.37782 20.7036 6.22897 20.8083 6.06311 20.878L3.42811 21.985C3.33732 22.0231 3.2598 22.0872 3.20529 22.1692C3.15078 22.2512 3.1217 22.3475 3.1217 22.446C3.1217 22.5445 3.15078 22.6408 3.20529 22.7228C3.2598 22.8048 3.33732 22.8689 3.42811 22.907L6.07511 24.02C6.41111 24.161 6.66911 24.443 6.78011 24.79L7.95011 28.427C7.98251 28.5278 8.04606 28.6157 8.1316 28.678C8.21714 28.7404 8.32026 28.774 8.42611 28.774C8.53196 28.774 8.63508 28.7404 8.72062 28.678C8.80616 28.6157 8.86971 28.5278 8.90211 28.427L10.0671 24.801C10.1222 24.63 10.2135 24.4729 10.3348 24.3403C10.4562 24.2078 10.6046 24.103 10.7701 24.033L13.4311 22.907C13.5216 22.8687 13.5988 22.8046 13.6531 22.7227C13.7074 22.6408 13.7363 22.5448 13.7363 22.4465C13.7363 22.3482 13.7074 22.2522 13.6531 22.1703C13.5988 22.0884 13.5216 22.0243 13.4311 21.986L10.7821 20.865C10.617 20.7951 10.4689 20.6906 10.3478 20.5584C10.2266 20.4262 10.1353 20.2696 10.0801 20.099L8.90011 16.456C8.86747 16.3556 8.80388 16.2681 8.71846 16.2061C8.63305 16.144 8.53018 16.1106 8.42461 16.1106C8.31904 16.1106 8.21617 16.144 8.13075 16.2061C8.04534 16.2681 7.98175 16.3556 7.94911 16.456L6.76811 20.11Z" fill="url(#paint10_linear_6_309)"/>
<path d="M6.76811 20.11C6.71279 20.2812 6.62117 20.4385 6.4995 20.571C6.37782 20.7036 6.22897 20.8083 6.06311 20.878L3.42811 21.985C3.33732 22.0231 3.2598 22.0872 3.20529 22.1692C3.15078 22.2512 3.1217 22.3475 3.1217 22.446C3.1217 22.5445 3.15078 22.6408 3.20529 22.7228C3.2598 22.8048 3.33732 22.8689 3.42811 22.907L6.07511 24.02C6.41111 24.161 6.66911 24.443 6.78011 24.79L7.95011 28.427C7.98251 28.5278 8.04606 28.6157 8.1316 28.678C8.21714 28.7404 8.32026 28.774 8.42611 28.774C8.53196 28.774 8.63508 28.7404 8.72062 28.678C8.80616 28.6157 8.86971 28.5278 8.90211 28.427L10.0671 24.801C10.1222 24.63 10.2135 24.4729 10.3348 24.3403C10.4562 24.2078 10.6046 24.103 10.7701 24.033L13.4311 22.907C13.5216 22.8687 13.5988 22.8046 13.6531 22.7227C13.7074 22.6408 13.7363 22.5448 13.7363 22.4465C13.7363 22.3482 13.7074 22.2522 13.6531 22.1703C13.5988 22.0884 13.5216 22.0243 13.4311 21.986L10.7821 20.865C10.617 20.7951 10.4689 20.6906 10.3478 20.5584C10.2266 20.4262 10.1353 20.2696 10.0801 20.099L8.90011 16.456C8.86747 16.3556 8.80388 16.2681 8.71846 16.2061C8.63305 16.144 8.53018 16.1106 8.42461 16.1106C8.31904 16.1106 8.21617 16.144 8.13075 16.2061C8.04534 16.2681 7.98175 16.3556 7.94911 16.456L6.76811 20.11Z" fill="url(#paint11_linear_6_309)"/>
<path d="M6.76811 20.11C6.71279 20.2812 6.62117 20.4385 6.4995 20.571C6.37782 20.7036 6.22897 20.8083 6.06311 20.878L3.42811 21.985C3.33732 22.0231 3.2598 22.0872 3.20529 22.1692C3.15078 22.2512 3.1217 22.3475 3.1217 22.446C3.1217 22.5445 3.15078 22.6408 3.20529 22.7228C3.2598 22.8048 3.33732 22.8689 3.42811 22.907L6.07511 24.02C6.41111 24.161 6.66911 24.443 6.78011 24.79L7.95011 28.427C7.98251 28.5278 8.04606 28.6157 8.1316 28.678C8.21714 28.7404 8.32026 28.774 8.42611 28.774C8.53196 28.774 8.63508 28.7404 8.72062 28.678C8.80616 28.6157 8.86971 28.5278 8.90211 28.427L10.0671 24.801C10.1222 24.63 10.2135 24.4729 10.3348 24.3403C10.4562 24.2078 10.6046 24.103 10.7701 24.033L13.4311 22.907C13.5216 22.8687 13.5988 22.8046 13.6531 22.7227C13.7074 22.6408 13.7363 22.5448 13.7363 22.4465C13.7363 22.3482 13.7074 22.2522 13.6531 22.1703C13.5988 22.0884 13.5216 22.0243 13.4311 21.986L10.7821 20.865C10.617 20.7951 10.4689 20.6906 10.3478 20.5584C10.2266 20.4262 10.1353 20.2696 10.0801 20.099L8.90011 16.456C8.86747 16.3556 8.80388 16.2681 8.71846 16.2061C8.63305 16.144 8.53018 16.1106 8.42461 16.1106C8.31904 16.1106 8.21617 16.144 8.13075 16.2061C8.04534 16.2681 7.98175 16.3556 7.94911 16.456L6.76811 20.11Z" fill="url(#paint12_radial_6_309)"/>
<path d="M6.86711 24.25H6.43511C6.32861 24.154 6.20697 24.0763 6.07511 24.02L3.42811 22.907C3.33732 22.8689 3.2598 22.8048 3.20529 22.7228C3.15078 22.6408 3.1217 22.5445 3.1217 22.446C3.1217 22.3475 3.15078 22.2512 3.20529 22.1692C3.2598 22.0872 3.33732 22.0231 3.42811 21.985L6.06311 20.878C6.22897 20.8083 6.37782 20.7036 6.4995 20.571C6.62117 20.4385 6.71279 20.2812 6.76811 20.11L7.95011 16.456C7.98275 16.3556 8.04634 16.2681 8.13175 16.2061C8.21717 16.144 8.32003 16.1106 8.42561 16.1106C8.53118 16.1106 8.63405 16.144 8.71946 16.2061C8.80488 16.2681 8.86847 16.3556 8.90111 16.456L10.0801 20.099C10.1921 20.444 10.4481 20.724 10.7821 20.865L13.4311 21.985C13.5219 22.0231 13.5994 22.0872 13.6539 22.1692C13.7084 22.2512 13.7375 22.3475 13.7375 22.446C13.7375 22.5445 13.7084 22.6408 13.6539 22.7228C13.5994 22.8048 13.5219 22.8689 13.4311 22.907L6.20711 23.337C6.07911 23.391 6.67211 23.796 6.86711 24.25Z" fill="url(#paint13_linear_6_309)"/>
<path d="M6.86711 24.25H6.43511C6.32861 24.154 6.20697 24.0763 6.07511 24.02L3.42811 22.907C3.33732 22.8689 3.2598 22.8048 3.20529 22.7228C3.15078 22.6408 3.1217 22.5445 3.1217 22.446C3.1217 22.3475 3.15078 22.2512 3.20529 22.1692C3.2598 22.0872 3.33732 22.0231 3.42811 21.985L6.06311 20.878C6.22897 20.8083 6.37782 20.7036 6.4995 20.571C6.62117 20.4385 6.71279 20.2812 6.76811 20.11L7.95011 16.456C7.98275 16.3556 8.04634 16.2681 8.13175 16.2061C8.21717 16.144 8.32003 16.1106 8.42561 16.1106C8.53118 16.1106 8.63405 16.144 8.71946 16.2061C8.80488 16.2681 8.86847 16.3556 8.90111 16.456L10.0801 20.099C10.1921 20.444 10.4481 20.724 10.7821 20.865L13.4311 21.985C13.5219 22.0231 13.5994 22.0872 13.6539 22.1692C13.7084 22.2512 13.7375 22.3475 13.7375 22.446C13.7375 22.5445 13.7084 22.6408 13.6539 22.7228C13.5994 22.8048 13.5219 22.8689 13.4311 22.907L6.20711 23.337C6.07911 23.391 6.67211 23.796 6.86711 24.25Z" fill="url(#paint14_linear_6_309)"/>
<path d="M6.43506 24.251C6.59306 24.396 6.71306 24.581 6.78006 24.79L7.95006 28.427C7.98246 28.5278 8.04601 28.6157 8.13155 28.678C8.21709 28.7404 8.32021 28.774 8.42606 28.774C8.53191 28.774 8.63503 28.7404 8.72057 28.678C8.80611 28.6157 8.86966 28.5278 8.90206 28.427L10.0671 24.801C10.1353 24.5891 10.2589 24.3992 10.4251 24.251H6.43506Z" fill="url(#paint15_linear_6_309)"/>
<g filter="url(#filter4_f_6_309)">
<path d="M8.77002 16.782L9.73602 20.022C9.82403 20.3167 9.9788 20.5871 10.1883 20.8122C10.3978 21.0373 10.6564 21.2111 10.944 21.32L13.114 22.142" stroke="url(#paint16_radial_6_309)" stroke-width="0.1" stroke-linecap="round"/>
</g>
<g filter="url(#filter5_f_6_309)">
<path d="M8.53503 28.939L9.62903 25.345" stroke="url(#paint17_linear_6_309)" stroke-width="0.1" stroke-linecap="round"/>
</g>
<g filter="url(#filter6_f_6_309)">
<path d="M6.81604 21.142L8.12904 16.782" stroke="url(#paint18_linear_6_309)" stroke-width="0.1" stroke-linecap="round"/>
</g>
<g filter="url(#filter7_f_6_309)">
<path d="M21.796 10.156C21.6659 10.4428 21.4324 10.67 21.142 10.792L19.86 11.332C19.8107 11.3531 19.7686 11.3882 19.739 11.433C19.7094 11.4778 19.6936 11.5303 19.6936 11.584C19.6936 11.6377 19.7094 11.6902 19.739 11.735C19.7686 11.7798 19.8107 11.8149 19.86 11.836L21.162 12.384C21.445 12.503 21.674 12.721 21.806 12.997L22.638 14.739C22.72 14.993 23.078 14.993 23.16 14.739L23.465 13.223C23.5051 13.0235 23.5932 12.8367 23.7219 12.679C23.8505 12.5213 24.0156 12.3974 24.203 12.318L25.343 11.836C25.3927 11.8151 25.4351 11.78 25.4649 11.735C25.4947 11.6901 25.5106 11.6374 25.5106 11.5835C25.5106 11.5296 25.4947 11.4769 25.4649 11.432C25.4351 11.3871 25.3927 11.3519 25.343 11.331L24.128 10.818C23.9629 10.7481 23.8148 10.6436 23.6937 10.5114C23.5725 10.3792 23.4813 10.2226 23.426 10.052L22.86 8.30001C22.778 8.04801 22.72 8.04801 22.639 8.30001L21.796 10.156Z" fill="#C01942"/>
</g>
<path d="M22.311 9.92501C22.2557 10.0962 22.1641 10.2535 22.0424 10.386C21.9207 10.5186 21.7719 10.6233 21.606 10.693L20.401 11.2C20.3513 11.2209 20.3089 11.2561 20.2791 11.301C20.2493 11.3459 20.2334 11.3986 20.2334 11.4525C20.2334 11.5064 20.2493 11.5591 20.2791 11.604C20.3089 11.649 20.3513 11.6841 20.401 11.705L21.612 12.215C21.948 12.355 22.206 12.637 22.318 12.984L22.879 14.73C22.96 14.983 23.319 14.983 23.401 14.73L23.961 12.99C24.0157 12.8187 24.1068 12.6613 24.2279 12.5284C24.3491 12.3955 24.4975 12.2903 24.663 12.22L25.883 11.704C25.9324 11.6829 25.9745 11.6478 26.0041 11.603C26.0337 11.5582 26.0494 11.5057 26.0494 11.452C26.0494 11.3983 26.0337 11.3458 26.0041 11.301C25.9745 11.2562 25.9324 11.2211 25.883 11.2L24.669 10.686C24.5039 10.6161 24.3558 10.5116 24.2346 10.3794C24.1135 10.2472 24.0222 10.0906 23.967 9.92001L23.401 8.16901C23.3833 8.11368 23.3485 8.06539 23.3016 8.03113C23.2547 7.99687 23.1981 7.97841 23.14 7.97841C23.0819 7.97841 23.0253 7.99687 22.9784 8.03113C22.9315 8.06539 22.8967 8.11368 22.879 8.16901L22.311 9.92501Z" fill="url(#paint19_linear_6_309)"/>
<path d="M22.311 9.92501C22.2557 10.0962 22.1641 10.2535 22.0424 10.386C21.9207 10.5186 21.7719 10.6233 21.606 10.693L20.401 11.2C20.3513 11.2209 20.3089 11.2561 20.2791 11.301C20.2493 11.3459 20.2334 11.3986 20.2334 11.4525C20.2334 11.5064 20.2493 11.5591 20.2791 11.604C20.3089 11.649 20.3513 11.6841 20.401 11.705L21.612 12.215C21.948 12.355 22.206 12.637 22.318 12.984L22.879 14.73C22.96 14.983 23.319 14.983 23.401 14.73L23.961 12.99C24.0157 12.8187 24.1068 12.6613 24.2279 12.5284C24.3491 12.3955 24.4975 12.2903 24.663 12.22L25.883 11.704C25.9324 11.6829 25.9745 11.6478 26.0041 11.603C26.0337 11.5582 26.0494 11.5057 26.0494 11.452C26.0494 11.3983 26.0337 11.3458 26.0041 11.301C25.9745 11.2562 25.9324 11.2211 25.883 11.2L24.669 10.686C24.5039 10.6161 24.3558 10.5116 24.2346 10.3794C24.1135 10.2472 24.0222 10.0906 23.967 9.92001L23.401 8.16901C23.3833 8.11368 23.3485 8.06539 23.3016 8.03113C23.2547 7.99687 23.1981 7.97841 23.14 7.97841C23.0819 7.97841 23.0253 7.99687 22.9784 8.03113C22.9315 8.06539 22.8967 8.11368 22.879 8.16901L22.311 9.92501Z" fill="url(#paint20_linear_6_309)"/>
<path d="M22.311 9.92501C22.2557 10.0962 22.1641 10.2535 22.0424 10.386C21.9207 10.5186 21.7719 10.6233 21.606 10.693L20.401 11.2C20.3513 11.2209 20.3089 11.2561 20.2791 11.301C20.2493 11.3459 20.2334 11.3986 20.2334 11.4525C20.2334 11.5064 20.2493 11.5591 20.2791 11.604C20.3089 11.649 20.3513 11.6841 20.401 11.705L21.612 12.215C21.948 12.355 22.206 12.637 22.318 12.984L22.879 14.73C22.96 14.983 23.319 14.983 23.401 14.73L23.961 12.99C24.0157 12.8187 24.1068 12.6613 24.2279 12.5284C24.3491 12.3955 24.4975 12.2903 24.663 12.22L25.883 11.704C25.9324 11.6829 25.9745 11.6478 26.0041 11.603C26.0337 11.5582 26.0494 11.5057 26.0494 11.452C26.0494 11.3983 26.0337 11.3458 26.0041 11.301C25.9745 11.2562 25.9324 11.2211 25.883 11.2L24.669 10.686C24.5039 10.6161 24.3558 10.5116 24.2346 10.3794C24.1135 10.2472 24.0222 10.0906 23.967 9.92001L23.401 8.16901C23.3833 8.11368 23.3485 8.06539 23.3016 8.03113C23.2547 7.99687 23.1981 7.97841 23.14 7.97841C23.0819 7.97841 23.0253 7.99687 22.9784 8.03113C22.9315 8.06539 22.8967 8.11368 22.879 8.16901L22.311 9.92501Z" fill="url(#paint21_linear_6_309)"/>
<path d="M22.311 9.92501C22.2557 10.0962 22.1641 10.2535 22.0424 10.386C21.9207 10.5186 21.7719 10.6233 21.606 10.693L20.401 11.2C20.3513 11.2209 20.3089 11.2561 20.2791 11.301C20.2493 11.3459 20.2334 11.3986 20.2334 11.4525C20.2334 11.5064 20.2493 11.5591 20.2791 11.604C20.3089 11.649 20.3513 11.6841 20.401 11.705L21.612 12.215C21.948 12.355 22.206 12.637 22.318 12.984L22.879 14.73C22.96 14.983 23.319 14.983 23.401 14.73L23.961 12.99C24.0157 12.8187 24.1068 12.6613 24.2279 12.5284C24.3491 12.3955 24.4975 12.2903 24.663 12.22L25.883 11.704C25.9324 11.6829 25.9745 11.6478 26.0041 11.603C26.0337 11.5582 26.0494 11.5057 26.0494 11.452C26.0494 11.3983 26.0337 11.3458 26.0041 11.301C25.9745 11.2562 25.9324 11.2211 25.883 11.2L24.669 10.686C24.5039 10.6161 24.3558 10.5116 24.2346 10.3794C24.1135 10.2472 24.0222 10.0906 23.967 9.92001L23.401 8.16901C23.3833 8.11368 23.3485 8.06539 23.3016 8.03113C23.2547 7.99687 23.1981 7.97841 23.14 7.97841C23.0819 7.97841 23.0253 7.99687 22.9784 8.03113C22.9315 8.06539 22.8967 8.11368 22.879 8.16901L22.311 9.92501Z" fill="url(#paint22_radial_6_309)"/>
<path d="M22.286 12.441H22.049C21.9909 12.3883 21.9243 12.3457 21.852 12.315L20.401 11.705C20.3513 11.6841 20.3089 11.649 20.2791 11.604C20.2493 11.5591 20.2334 11.5064 20.2334 11.4525C20.2334 11.3986 20.2493 11.3459 20.2791 11.301C20.3089 11.2561 20.3513 11.2209 20.401 11.2L21.845 10.592C21.9352 10.553 22.0162 10.4955 22.0827 10.4231C22.1492 10.3508 22.1998 10.2652 22.231 10.172L22.879 8.16901C22.8967 8.11368 22.9315 8.06539 22.9784 8.03113C23.0253 7.99687 23.0819 7.97841 23.14 7.97841C23.1981 7.97841 23.2547 7.99687 23.3016 8.03113C23.3485 8.06539 23.3833 8.11368 23.401 8.16901L24.047 10.165C24.107 10.355 24.248 10.508 24.431 10.585L25.883 11.2C25.9327 11.2209 25.9751 11.2561 26.0049 11.301C26.0347 11.3459 26.0506 11.3986 26.0506 11.4525C26.0506 11.5064 26.0347 11.5591 26.0049 11.604C25.9751 11.649 25.9327 11.6841 25.883 11.705L21.923 11.94C21.854 11.97 22.179 12.193 22.286 12.441Z" fill="url(#paint23_linear_6_309)"/>
<path d="M22.286 12.441H22.049C21.9909 12.3883 21.9243 12.3457 21.852 12.315L20.401 11.705C20.3513 11.6841 20.3089 11.649 20.2791 11.604C20.2493 11.5591 20.2334 11.5064 20.2334 11.4525C20.2334 11.3986 20.2493 11.3459 20.2791 11.301C20.3089 11.2561 20.3513 11.2209 20.401 11.2L21.845 10.592C21.9352 10.553 22.0162 10.4955 22.0827 10.4231C22.1492 10.3508 22.1998 10.2652 22.231 10.172L22.879 8.16901C22.8967 8.11368 22.9315 8.06539 22.9784 8.03113C23.0253 7.99687 23.0819 7.97841 23.14 7.97841C23.1981 7.97841 23.2547 7.99687 23.3016 8.03113C23.3485 8.06539 23.3833 8.11368 23.401 8.16901L24.047 10.165C24.107 10.355 24.248 10.508 24.431 10.585L25.883 11.2C25.9327 11.2209 25.9751 11.2561 26.0049 11.301C26.0347 11.3459 26.0506 11.3986 26.0506 11.4525C26.0506 11.5064 26.0347 11.5591 26.0049 11.604C25.9751 11.649 25.9327 11.6841 25.883 11.705L21.923 11.94C21.854 11.97 22.179 12.193 22.286 12.441Z" fill="url(#paint24_linear_6_309)"/>
<path d="M22.0491 12.441C22.1371 12.5223 22.2004 12.621 22.2391 12.737L22.8791 14.73C22.9611 14.983 23.3191 14.983 23.4011 14.73L24.0401 12.743C24.078 12.627 24.1455 12.5229 24.2361 12.441H22.0491Z" fill="url(#paint25_linear_6_309)"/>
<g filter="url(#filter8_f_6_309)">
<path d="M23.3281 8.34801L23.7301 9.69501C23.8182 9.98978 23.9731 10.2602 24.1828 10.4854C24.3925 10.7105 24.6513 10.8842 24.9391 10.993L25.7091 11.285" stroke="url(#paint26_radial_6_309)" stroke-width="0.1" stroke-linecap="round"/>
</g>
<g filter="url(#filter9_f_6_309)">
<path d="M23.2001 15.01L23.8001 13.04" stroke="url(#paint27_linear_6_309)" stroke-width="0.1" stroke-linecap="round"/>
</g>
<g filter="url(#filter10_f_6_309)">
<path d="M22.2581 10.737L22.9781 8.347" stroke="url(#paint28_linear_6_309)" stroke-width="0.1" stroke-linecap="round"/>
</g>
<defs>
<filter id="filter0_f_6_309" x="14.566" y="8.24013" width="8.51221" height="14.6424" filterUnits="userSpaceOnUse" color-interpolation-filters="sRGB">
<feFlood flood-opacity="0" result="BackgroundImageFix"/>
<feBlend mode="normal" in="SourceGraphic" in2="BackgroundImageFix" result="shape"/>
<feGaussianBlur stdDeviation="1" result="effect1_foregroundBlur_6_309"/>
</filter>
<filter id="filter1_f_6_309" x="19.6199" y="6.52988" width="10.1745" height="10.1023" filterUnits="userSpaceOnUse" color-interpolation-filters="sRGB">
<feFlood flood-opacity="0" result="BackgroundImageFix"/>
<feBlend mode="normal" in="SourceGraphic" in2="BackgroundImageFix" result="shape"/>
<feGaussianBlur stdDeviation="0.75" result="effect1_foregroundBlur_6_309"/>
</filter>
<filter id="filter2_f_6_309" x="7.5343" y="5.98627" width="9.8656" height="10.4015" filterUnits="userSpaceOnUse" color-interpolation-filters="sRGB">
<feFlood flood-opacity="0" result="BackgroundImageFix"/>
<feBlend mode="normal" in="SourceGraphic" in2="BackgroundImageFix" result="shape"/>
<feGaussianBlur stdDeviation="0.75" result="effect1_foregroundBlur_6_309"/>
</filter>
<filter id="filter3_f_6_309" x="4.67603" y="15.6056" width="5.27698" height="6.49442" filterUnits="userSpaceOnUse" color-interpolation-filters="sRGB">
<feFlood flood-opacity="0" result="BackgroundImageFix"/>
<feBlend mode="normal" in="SourceGraphic" in2="BackgroundImageFix" result="shape"/>
<feGaussianBlur stdDeviation="0.5" result="effect1_foregroundBlur_6_309"/>
</filter>
<filter id="filter4_f_6_309" x="8.46997" y="16.482" width="4.94409" height="5.96004" filterUnits="userSpaceOnUse" color-interpolation-filters="sRGB">
<feFlood flood-opacity="0" result="BackgroundImageFix"/>
<feBlend mode="normal" in="SourceGraphic" in2="BackgroundImageFix" result="shape"/>
<feGaussianBlur stdDeviation="0.125" result="effect1_foregroundBlur_6_309"/>
</filter>
<filter id="filter5_f_6_309" x="8.33499" y="25.145" width="1.49409" height="3.99403" filterUnits="userSpaceOnUse" color-interpolation-filters="sRGB">
<feFlood flood-opacity="0" result="BackgroundImageFix"/>
<feBlend mode="normal" in="SourceGraphic" in2="BackgroundImageFix" result="shape"/>
<feGaussianBlur stdDeviation="0.075" result="effect1_foregroundBlur_6_309"/>
</filter>
<filter id="filter6_f_6_309" x="6.46599" y="16.432" width="2.01309" height="5.06004" filterUnits="userSpaceOnUse" color-interpolation-filters="sRGB">
<feFlood flood-opacity="0" result="BackgroundImageFix"/>
<feBlend mode="normal" in="SourceGraphic" in2="BackgroundImageFix" result="shape"/>
<feGaussianBlur stdDeviation="0.15" result="effect1_foregroundBlur_6_309"/>
</filter>
<filter id="filter7_f_6_309" x="18.9436" y="7.36101" width="7.31702" height="8.3185" filterUnits="userSpaceOnUse" color-interpolation-filters="sRGB">
<feFlood flood-opacity="0" result="BackgroundImageFix"/>
<feBlend mode="normal" in="SourceGraphic" in2="BackgroundImageFix" result="shape"/>
<feGaussianBlur stdDeviation="0.375" result="effect1_foregroundBlur_6_309"/>
</filter>
<filter id="filter8_f_6_309" x="23.0281" y="8.04799" width="2.98102" height="3.53703" filterUnits="userSpaceOnUse" color-interpolation-filters="sRGB">
<feFlood flood-opacity="0" result="BackgroundImageFix"/>
<feBlend mode="normal" in="SourceGraphic" in2="BackgroundImageFix" result="shape"/>
<feGaussianBlur stdDeviation="0.125" result="effect1_foregroundBlur_6_309"/>
</filter>
<filter id="filter9_f_6_309" x="23.0001" y="12.84" width="1.00001" height="2.37004" filterUnits="userSpaceOnUse" color-interpolation-filters="sRGB">
<feFlood flood-opacity="0" result="BackgroundImageFix"/>
<feBlend mode="normal" in="SourceGraphic" in2="BackgroundImageFix" result="shape"/>
<feGaussianBlur stdDeviation="0.075" result="effect1_foregroundBlur_6_309"/>
</filter>
<filter id="filter10_f_6_309" x="21.908" y="7.99698" width="1.42007" height="3.09004" filterUnits="userSpaceOnUse" color-interpolation-filters="sRGB">
<feFlood flood-opacity="0" result="BackgroundImageFix"/>
<feBlend mode="normal" in="SourceGraphic" in2="BackgroundImageFix" result="shape"/>
<feGaussianBlur stdDeviation="0.15" result="effect1_foregroundBlur_6_309"/>
</filter>
<radialGradient id="paint0_radial_6_309" cx="0" cy="0" r="1" gradientUnits="userSpaceOnUse" gradientTransform="translate(18.8001 29.33) rotate(-90) scale(32.5418 55.321)">
<stop stop-color="#F12E52"/>
<stop offset="0.596" stop-color="#FF3B79"/>
<stop offset="1" stop-color="#FF4EC6"/>
</radialGradient>
<radialGradient id="paint1_radial_6_309" cx="0" cy="0" r="1" gradientUnits="userSpaceOnUse" gradientTransform="translate(22.8838 11.7341) rotate(142.986) scale(26.1961 49.0678)">
<stop offset="0.483" stop-color="#B91D43" stop-opacity="0"/>
<stop offset="0.834" stop-color="#B91D43"/>
</radialGradient>
<radialGradient id="paint2_radial_6_309" cx="0" cy="0" r="1" gradientUnits="userSpaceOnUse" gradientTransform="translate(19.8591 18.152) rotate(-158.663) scale(22.7229 32.122)">
<stop offset="0.41" stop-color="#B91D43" stop-opacity="0"/>
<stop offset="0.834" stop-color="#B91D43"/>
</radialGradient>
<radialGradient id="paint3_radial_6_309" cx="0" cy="0" r="1" gradientUnits="userSpaceOnUse" gradientTransform="translate(15.4271 14.183) rotate(90) scale(19.7764)">
<stop offset="0.671" stop-color="#FF7AF2" stop-opacity="0"/>
<stop offset="0.934" stop-color="#FFBCE6"/>
</radialGradient>
<linearGradient id="paint4_linear_6_309" x1="17.6101" y1="16.499" x2="25.6131" y2="26.023" gradientUnits="userSpaceOnUse">
<stop offset="0.694" stop-color="#FF7AF2" stop-opacity="0"/>
<stop offset="0.934" stop-color="#FFBCE6"/>
</linearGradient>
<linearGradient id="paint5_linear_6_309" x1="16.6181" y1="16.895" x2="7.22606" y2="27.478" gradientUnits="userSpaceOnUse">
<stop offset="0.694" stop-color="#FF7AF2" stop-opacity="0"/>
<stop offset="0.934" stop-color="#FFBCE6"/>
</linearGradient>
<linearGradient id="paint6_linear_6_309" x1="19.688" y1="9.71901" x2="16.881" y2="6.63601" gradientUnits="userSpaceOnUse">
<stop offset="0.41" stop-color="#C12372" stop-opacity="0"/>
<stop offset="0.834" stop-color="#B5286E"/>
</linearGradient>
<radialGradient id="paint7_radial_6_309" cx="0" cy="0" r="1" gradientUnits="userSpaceOnUse" gradientTransform="translate(28.3209 9.29566) rotate(139.035) scale(6.14843 4.1517)">
<stop stop-color="#FF93BA"/>
<stop offset="1" stop-color="#FF73A6" stop-opacity="0"/>
</radialGradient>
<radialGradient id="paint8_radial_6_309" cx="0" cy="0" r="1" gradientUnits="userSpaceOnUse" gradientTransform="translate(11.5255 8.79062) rotate(52.745) scale(8.84998 5.97591)">
<stop stop-color="#FF93BA"/>
<stop offset="1" stop-color="#FF73A6" stop-opacity="0"/>
</radialGradient>
<linearGradient id="paint9_linear_6_309" x1="9.39411" y1="16.11" x2="6.67611" y2="25.907" gradientUnits="userSpaceOnUse">
<stop stop-color="#FFD542"/>
<stop offset="1" stop-color="#FFA847"/>
</linearGradient>
<linearGradient id="paint10_linear_6_309" x1="7.51911" y1="25.345" x2="6.75011" y2="29.583" gradientUnits="userSpaceOnUse">
<stop offset="0.458" stop-color="#E88518" stop-opacity="0"/>
<stop offset="1" stop-color="#E88518"/>
</linearGradient>
<linearGradient id="paint11_linear_6_309" x1="5.83211" y1="24.376" x2="1.59711" y2="24.263" gradientUnits="userSpaceOnUse">
<stop offset="0.362" stop-color="#E88518" stop-opacity="0"/>
<stop offset="1" stop-color="#E88518"/>
</linearGradient>
<radialGradient id="paint12_radial_6_309" cx="0" cy="0" r="1" gradientUnits="userSpaceOnUse" gradientTransform="translate(10.1448 12.6255) rotate(103.828) scale(7.17675 19.8288)">
<stop stop-color="#FFFF6B"/>
<stop offset="1" stop-color="#FFFF6B" stop-opacity="0"/>
</radialGradient>
<linearGradient id="paint13_linear_6_309" x1="7.44111" y1="22.298" x2="6.42711" y2="24.464" gradientUnits="userSpaceOnUse">
<stop offset="0.782" stop-color="#E88518" stop-opacity="0"/>
<stop offset="1" stop-color="#E88518"/>
</linearGradient>
<linearGradient id="paint14_linear_6_309" x1="7.44111" y1="22.298" x2="6.42711" y2="24.464" gradientUnits="userSpaceOnUse">
<stop offset="0.782" stop-color="#E88518" stop-opacity="0"/>
<stop offset="1" stop-color="#E88518"/>
</linearGradient>
<linearGradient id="paint15_linear_6_309" x1="9.61506" y1="26.891" x2="7.49806" y2="27.601" gradientUnits="userSpaceOnUse">
<stop offset="0.776" stop-color="#E88518" stop-opacity="0"/>
<stop offset="1" stop-color="#E88518"/>
</linearGradient>
<radialGradient id="paint16_radial_6_309" cx="0" cy="0" r="1" gradientUnits="userSpaceOnUse" gradientTransform="translate(8.12902 16.782) rotate(43.142) scale(7.83754 6.70166)">
<stop stop-color="#FFF270" stop-opacity="0"/>
<stop offset="0.548" stop-color="#FFF270"/>
<stop offset="1" stop-color="#FFF270" stop-opacity="0"/>
</radialGradient>
<linearGradient id="paint17_linear_6_309" x1="9.06603" y1="27.485" x2="8.20503" y2="26.078" gradientUnits="userSpaceOnUse">
<stop stop-color="#FFF270" stop-opacity="0"/>
<stop offset="0.495" stop-color="#FFF270" stop-opacity="0.6"/>
<stop offset="1" stop-color="#FFF270" stop-opacity="0"/>
</linearGradient>
<linearGradient id="paint18_linear_6_309" x1="8.00404" y1="16.454" x2="9.68304" y2="18.896" gradientUnits="userSpaceOnUse">
<stop stop-color="#FF8A09" stop-opacity="0.6"/>
<stop offset="1" stop-color="#FF8A09" stop-opacity="0"/>
</linearGradient>
<linearGradient id="paint19_linear_6_309" x1="23.671" y1="7.97901" x2="22.181" y2="13.349" gradientUnits="userSpaceOnUse">
<stop stop-color="#FFD542"/>
<stop offset="1" stop-color="#FFA847"/>
</linearGradient>
<linearGradient id="paint20_linear_6_309" x1="22.643" y1="13.041" x2="22.221" y2="15.364" gradientUnits="userSpaceOnUse">
<stop offset="0.458" stop-color="#E88518" stop-opacity="0"/>
<stop offset="1" stop-color="#E88518"/>
</linearGradient>
<linearGradient id="paint21_linear_6_309" x1="21.718" y1="12.51" x2="19.398" y2="12.448" gradientUnits="userSpaceOnUse">
<stop offset="0.362" stop-color="#E88518" stop-opacity="0"/>
<stop offset="1" stop-color="#E88518"/>
</linearGradient>
<radialGradient id="paint22_radial_6_309" cx="0" cy="0" r="1" gradientUnits="userSpaceOnUse" gradientTransform="translate(24.0809 6.06971) rotate(103.828) scale(3.93343 10.8678)">
<stop stop-color="#FFFF6B"/>
<stop offset="1" stop-color="#FFFF6B" stop-opacity="0"/>
</radialGradient>
<linearGradient id="paint23_linear_6_309" x1="22.6" y1="11.371" x2="22.045" y2="12.558" gradientUnits="userSpaceOnUse">
<stop offset="0.782" stop-color="#E88518" stop-opacity="0"/>
<stop offset="1" stop-color="#E88518"/>
</linearGradient>
<linearGradient id="paint24_linear_6_309" x1="22.6" y1="11.371" x2="22.045" y2="12.558" gradientUnits="userSpaceOnUse">
<stop offset="0.782" stop-color="#E88518" stop-opacity="0"/>
<stop offset="1" stop-color="#E88518"/>
</linearGradient>
<linearGradient id="paint25_linear_6_309" x1="23.7921" y1="13.888" x2="22.6321" y2="14.277" gradientUnits="userSpaceOnUse">
<stop offset="0.776" stop-color="#E88518" stop-opacity="0"/>
<stop offset="1" stop-color="#E88518"/>
</linearGradient>
<radialGradient id="paint26_radial_6_309" cx="0" cy="0" r="1" gradientUnits="userSpaceOnUse" gradientTransform="translate(22.9772 8.3485) rotate(43.142) scale(4.29559 3.67304)">
<stop stop-color="#FFF270" stop-opacity="0"/>
<stop offset="0.548" stop-color="#FFF270"/>
<stop offset="1" stop-color="#FFF270" stop-opacity="0"/>
</radialGradient>
<linearGradient id="paint27_linear_6_309" x1="23.4911" y1="14.214" x2="23.0191" y2="13.443" gradientUnits="userSpaceOnUse">
<stop stop-color="#FFF270" stop-opacity="0"/>
<stop offset="0.495" stop-color="#FFF270" stop-opacity="0.6"/>
<stop offset="1" stop-color="#FFF270" stop-opacity="0"/>
</linearGradient>
<linearGradient id="paint28_linear_6_309" x1="22.9091" y1="8.168" x2="23.8291" y2="9.506" gradientUnits="userSpaceOnUse">
<stop stop-color="#FF8A09" stop-opacity="0.6"/>
<stop offset="1" stop-color="#FF8A09" stop-opacity="0"/>
</linearGradient>
</defs>
</svg>
