<svg width="32" height="32" viewBox="0 0 32 32" fill="none" xmlns="http://www.w3.org/2000/svg">
<mask id="mask0_22_371" style="mask-type:luminance" maskUnits="userSpaceOnUse" x="0" y="0" width="32" height="32">
<path d="M0 0H32V32H0V0Z" fill="white"/>
</mask>
<g mask="url(#mask0_22_371)">
<g filter="url(#filter0_i_22_371)">
<path d="M28.104 4.445C27.3797 3.72039 26.5197 3.14557 25.5731 2.7534C24.6266 2.36122 23.6121 2.15937 22.5875 2.15937C21.5629 2.15937 20.5484 2.36122 19.6019 2.7534C18.6553 3.14557 17.7953 3.72039 17.071 4.445L13.01 8.507C12.3274 9.18853 11.777 9.99077 11.387 10.873C12.7842 10.2298 14.3405 10.0141 15.86 10.253L19.37 6.743C19.7926 6.32035 20.2943 5.98506 20.8465 5.75629C21.3986 5.52753 21.9905 5.40976 22.5881 5.40971C23.1858 5.40967 23.7777 5.52734 24.3299 5.75602C24.8821 5.9847 25.3838 6.31991 25.8065 6.7425C26.2292 7.1651 26.5644 7.6668 26.7932 8.21897C27.022 8.77114 27.1397 9.36297 27.1398 9.96065C27.1398 10.5583 27.0222 11.1502 26.7935 11.7024C26.5648 12.2546 26.2296 12.7563 25.807 13.179L21.744 17.242C21.0732 17.9131 20.2094 18.3578 19.2734 18.5138C18.3374 18.6698 17.376 18.5293 16.5238 18.112C15.6716 17.6947 14.9711 17.0215 14.5204 16.1865C14.0697 15.3515 13.8912 14.3964 14.01 13.455C13.0337 13.5925 12.129 14.0447 11.433 14.743L10.836 15.34C11.0772 16.7501 11.7016 18.0667 12.6407 19.1458C13.5799 20.2249 14.7977 21.025 16.161 21.4585C17.5242 21.8921 18.9805 21.9425 20.3704 21.6041C21.7604 21.2657 23.0306 20.5517 24.042 19.54L28.105 15.477C28.8295 14.7527 29.4042 13.8928 29.7962 12.9463C30.1883 11.9999 30.3901 10.9855 30.3901 9.96101C30.3901 8.93656 30.1883 7.92215 29.7962 6.9757C29.4042 6.02926 28.8285 5.16932 28.104 4.445Z" fill="#BDC5CD"/>
</g>
<path d="M28.104 4.445C27.3797 3.72039 26.5197 3.14557 25.5731 2.7534C24.6266 2.36122 23.6121 2.15937 22.5875 2.15937C21.5629 2.15937 20.5484 2.36122 19.6019 2.7534C18.6553 3.14557 17.7953 3.72039 17.071 4.445L13.01 8.507C12.3274 9.18853 11.777 9.99077 11.387 10.873C12.7842 10.2298 14.3405 10.0141 15.86 10.253L19.37 6.743C19.7926 6.32035 20.2943 5.98506 20.8465 5.75629C21.3986 5.52753 21.9905 5.40976 22.5881 5.40971C23.1858 5.40967 23.7777 5.52734 24.3299 5.75602C24.8821 5.9847 25.3838 6.31991 25.8065 6.7425C26.2292 7.1651 26.5644 7.6668 26.7932 8.21897C27.022 8.77114 27.1397 9.36297 27.1398 9.96065C27.1398 10.5583 27.0222 11.1502 26.7935 11.7024C26.5648 12.2546 26.2296 12.7563 25.807 13.179L21.744 17.242C21.0732 17.9131 20.2094 18.3578 19.2734 18.5138C18.3374 18.6698 17.376 18.5293 16.5238 18.112C15.6716 17.6947 14.9711 17.0215 14.5204 16.1865C14.0697 15.3515 13.8912 14.3964 14.01 13.455C13.0337 13.5925 12.129 14.0447 11.433 14.743L10.836 15.34C11.0772 16.7501 11.7016 18.0667 12.6407 19.1458C13.5799 20.2249 14.7977 21.025 16.161 21.4585C17.5242 21.8921 18.9805 21.9425 20.3704 21.6041C21.7604 21.2657 23.0306 20.5517 24.042 19.54L28.105 15.477C28.8295 14.7527 29.4042 13.8928 29.7962 12.9463C30.1883 11.9999 30.3901 10.9855 30.3901 9.96101C30.3901 8.93656 30.1883 7.92215 29.7962 6.9757C29.4042 6.02926 28.8285 5.16932 28.104 4.445Z" fill="url(#paint0_radial_22_371)"/>
<path d="M28.104 4.445C27.3797 3.72039 26.5197 3.14557 25.5731 2.7534C24.6266 2.36122 23.6121 2.15937 22.5875 2.15937C21.5629 2.15937 20.5484 2.36122 19.6019 2.7534C18.6553 3.14557 17.7953 3.72039 17.071 4.445L13.01 8.507C12.3274 9.18853 11.777 9.99077 11.387 10.873C12.7842 10.2298 14.3405 10.0141 15.86 10.253L19.37 6.743C19.7926 6.32035 20.2943 5.98506 20.8465 5.75629C21.3986 5.52753 21.9905 5.40976 22.5881 5.40971C23.1858 5.40967 23.7777 5.52734 24.3299 5.75602C24.8821 5.9847 25.3838 6.31991 25.8065 6.7425C26.2292 7.1651 26.5644 7.6668 26.7932 8.21897C27.022 8.77114 27.1397 9.36297 27.1398 9.96065C27.1398 10.5583 27.0222 11.1502 26.7935 11.7024C26.5648 12.2546 26.2296 12.7563 25.807 13.179L21.744 17.242C21.0732 17.9131 20.2094 18.3578 19.2734 18.5138C18.3374 18.6698 17.376 18.5293 16.5238 18.112C15.6716 17.6947 14.9711 17.0215 14.5204 16.1865C14.0697 15.3515 13.8912 14.3964 14.01 13.455C13.0337 13.5925 12.129 14.0447 11.433 14.743L10.836 15.34C11.0772 16.7501 11.7016 18.0667 12.6407 19.1458C13.5799 20.2249 14.7977 21.025 16.161 21.4585C17.5242 21.8921 18.9805 21.9425 20.3704 21.6041C21.7604 21.2657 23.0306 20.5517 24.042 19.54L28.105 15.477C28.8295 14.7527 29.4042 13.8928 29.7962 12.9463C30.1883 11.9999 30.3901 10.9855 30.3901 9.96101C30.3901 8.93656 30.1883 7.92215 29.7962 6.9757C29.4042 6.02926 28.8285 5.16932 28.104 4.445Z" fill="url(#paint1_radial_22_371)"/>
<path d="M28.104 4.445C27.3797 3.72039 26.5197 3.14557 25.5731 2.7534C24.6266 2.36122 23.6121 2.15937 22.5875 2.15937C21.5629 2.15937 20.5484 2.36122 19.6019 2.7534C18.6553 3.14557 17.7953 3.72039 17.071 4.445L13.01 8.507C12.3274 9.18853 11.777 9.99077 11.387 10.873C12.7842 10.2298 14.3405 10.0141 15.86 10.253L19.37 6.743C19.7926 6.32035 20.2943 5.98506 20.8465 5.75629C21.3986 5.52753 21.9905 5.40976 22.5881 5.40971C23.1858 5.40967 23.7777 5.52734 24.3299 5.75602C24.8821 5.9847 25.3838 6.31991 25.8065 6.7425C26.2292 7.1651 26.5644 7.6668 26.7932 8.21897C27.022 8.77114 27.1397 9.36297 27.1398 9.96065C27.1398 10.5583 27.0222 11.1502 26.7935 11.7024C26.5648 12.2546 26.2296 12.7563 25.807 13.179L21.744 17.242C21.0732 17.9131 20.2094 18.3578 19.2734 18.5138C18.3374 18.6698 17.376 18.5293 16.5238 18.112C15.6716 17.6947 14.9711 17.0215 14.5204 16.1865C14.0697 15.3515 13.8912 14.3964 14.01 13.455C13.0337 13.5925 12.129 14.0447 11.433 14.743L10.836 15.34C11.0772 16.7501 11.7016 18.0667 12.6407 19.1458C13.5799 20.2249 14.7977 21.025 16.161 21.4585C17.5242 21.8921 18.9805 21.9425 20.3704 21.6041C21.7604 21.2657 23.0306 20.5517 24.042 19.54L28.105 15.477C28.8295 14.7527 29.4042 13.8928 29.7962 12.9463C30.1883 11.9999 30.3901 10.9855 30.3901 9.96101C30.3901 8.93656 30.1883 7.92215 29.7962 6.9757C29.4042 6.02926 28.8285 5.16932 28.104 4.445Z" fill="url(#paint2_linear_22_371)"/>
<path d="M28.104 4.445C27.3797 3.72039 26.5197 3.14557 25.5731 2.7534C24.6266 2.36122 23.6121 2.15937 22.5875 2.15937C21.5629 2.15937 20.5484 2.36122 19.6019 2.7534C18.6553 3.14557 17.7953 3.72039 17.071 4.445L13.01 8.507C12.3274 9.18853 11.777 9.99077 11.387 10.873C12.7842 10.2298 14.3405 10.0141 15.86 10.253L19.37 6.743C19.7926 6.32035 20.2943 5.98506 20.8465 5.75629C21.3986 5.52753 21.9905 5.40976 22.5881 5.40971C23.1858 5.40967 23.7777 5.52734 24.3299 5.75602C24.8821 5.9847 25.3838 6.31991 25.8065 6.7425C26.2292 7.1651 26.5644 7.6668 26.7932 8.21897C27.022 8.77114 27.1397 9.36297 27.1398 9.96065C27.1398 10.5583 27.0222 11.1502 26.7935 11.7024C26.5648 12.2546 26.2296 12.7563 25.807 13.179L21.744 17.242C21.0732 17.9131 20.2094 18.3578 19.2734 18.5138C18.3374 18.6698 17.376 18.5293 16.5238 18.112C15.6716 17.6947 14.9711 17.0215 14.5204 16.1865C14.0697 15.3515 13.8912 14.3964 14.01 13.455C13.0337 13.5925 12.129 14.0447 11.433 14.743L10.836 15.34C11.0772 16.7501 11.7016 18.0667 12.6407 19.1458C13.5799 20.2249 14.7977 21.025 16.161 21.4585C17.5242 21.8921 18.9805 21.9425 20.3704 21.6041C21.7604 21.2657 23.0306 20.5517 24.042 19.54L28.105 15.477C28.8295 14.7527 29.4042 13.8928 29.7962 12.9463C30.1883 11.9999 30.3901 10.9855 30.3901 9.96101C30.3901 8.93656 30.1883 7.92215 29.7962 6.9757C29.4042 6.02926 28.8285 5.16932 28.104 4.445Z" fill="url(#paint3_radial_22_371)"/>
<path d="M28.104 4.445C27.3797 3.72039 26.5197 3.14557 25.5731 2.7534C24.6266 2.36122 23.6121 2.15937 22.5875 2.15937C21.5629 2.15937 20.5484 2.36122 19.6019 2.7534C18.6553 3.14557 17.7953 3.72039 17.071 4.445L13.01 8.507C12.3274 9.18853 11.777 9.99077 11.387 10.873C12.7842 10.2298 14.3405 10.0141 15.86 10.253L19.37 6.743C19.7926 6.32035 20.2943 5.98506 20.8465 5.75629C21.3986 5.52753 21.9905 5.40976 22.5881 5.40971C23.1858 5.40967 23.7777 5.52734 24.3299 5.75602C24.8821 5.9847 25.3838 6.31991 25.8065 6.7425C26.2292 7.1651 26.5644 7.6668 26.7932 8.21897C27.022 8.77114 27.1397 9.36297 27.1398 9.96065C27.1398 10.5583 27.0222 11.1502 26.7935 11.7024C26.5648 12.2546 26.2296 12.7563 25.807 13.179L21.744 17.242C21.0732 17.9131 20.2094 18.3578 19.2734 18.5138C18.3374 18.6698 17.376 18.5293 16.5238 18.112C15.6716 17.6947 14.9711 17.0215 14.5204 16.1865C14.0697 15.3515 13.8912 14.3964 14.01 13.455C13.0337 13.5925 12.129 14.0447 11.433 14.743L10.836 15.34C11.0772 16.7501 11.7016 18.0667 12.6407 19.1458C13.5799 20.2249 14.7977 21.025 16.161 21.4585C17.5242 21.8921 18.9805 21.9425 20.3704 21.6041C21.7604 21.2657 23.0306 20.5517 24.042 19.54L28.105 15.477C28.8295 14.7527 29.4042 13.8928 29.7962 12.9463C30.1883 11.9999 30.3901 10.9855 30.3901 9.96101C30.3901 8.93656 30.1883 7.92215 29.7962 6.9757C29.4042 6.02926 28.8285 5.16932 28.104 4.445Z" fill="url(#paint4_radial_22_371)"/>
<g filter="url(#filter1_f_22_371)">
<path d="M27.5133 5.3303L27.5126 5.3296C25.0347 2.85172 21.0173 2.85172 18.5394 5.32959L14.3328 9.53617C11.855 12.014 11.855 16.0315 14.3328 18.5094L14.3335 18.5101C16.8114 20.9879 20.8288 20.9879 23.3067 18.5101L27.5133 14.3035C29.9912 11.8256 29.9912 7.80818 27.5133 5.3303Z" stroke="url(#paint5_linear_22_371)" stroke-width="1.25"/>
<path d="M27.5133 5.3303L27.5126 5.3296C25.0347 2.85172 21.0173 2.85172 18.5394 5.32959L14.3328 9.53617C11.855 12.014 11.855 16.0315 14.3328 18.5094L14.3335 18.5101C16.8114 20.9879 20.8288 20.9879 23.3067 18.5101L27.5133 14.3035C29.9912 11.8256 29.9912 7.80818 27.5133 5.3303Z" stroke="url(#paint6_linear_22_371)" stroke-width="1.25"/>
</g>
<g filter="url(#filter2_i_22_371)">
<path d="M15.859 10.253C17.4912 10.5073 18.9999 11.2751 20.166 12.445C21.3095 13.5851 22.0694 15.0531 22.34 16.645L21.743 17.242C21.0469 17.94 20.1422 18.3918 19.166 18.529C19.2533 17.8407 19.1817 17.1416 18.9567 16.4852C18.7317 15.8289 18.3593 15.2329 17.868 14.743C17.3693 14.243 16.7608 13.8662 16.0909 13.6426C15.4209 13.419 14.7081 13.3547 14.009 13.455C13.0327 13.5925 12.128 14.0447 11.432 14.743L7.36902 18.805C6.51542 19.6586 6.03587 20.8163 6.03587 22.0235C6.03587 23.2307 6.51542 24.3884 7.36902 25.242C8.22262 26.0956 9.38035 26.5751 10.5875 26.5751C11.7947 26.5751 12.9524 26.0956 13.806 25.242L17.316 21.731C18.8355 21.9699 20.3918 21.7542 21.789 21.111C21.399 21.9932 20.8487 22.7955 20.166 23.477L16.104 27.54C14.641 29.0032 12.6566 29.8253 10.5874 29.8254C8.51819 29.8255 6.53372 29.0036 5.07052 27.5405C3.60732 26.0774 2.78525 24.093 2.78516 22.0239C2.78506 19.9547 3.60695 17.9702 5.07002 16.507L9.13302 12.445C10.0015 11.5749 11.0636 10.9227 12.2324 10.5417C13.4012 10.1608 14.6436 10.0618 15.858 10.253" fill="#BDC5CD"/>
</g>
<path d="M15.859 10.253C17.4912 10.5073 18.9999 11.2751 20.166 12.445C21.3095 13.5851 22.0694 15.0531 22.34 16.645L21.743 17.242C21.0469 17.94 20.1422 18.3918 19.166 18.529C19.2533 17.8407 19.1817 17.1416 18.9567 16.4852C18.7317 15.8289 18.3593 15.2329 17.868 14.743C17.3693 14.243 16.7608 13.8662 16.0909 13.6426C15.4209 13.419 14.7081 13.3547 14.009 13.455C13.0327 13.5925 12.128 14.0447 11.432 14.743L7.36902 18.805C6.51542 19.6586 6.03587 20.8163 6.03587 22.0235C6.03587 23.2307 6.51542 24.3884 7.36902 25.242C8.22262 26.0956 9.38035 26.5751 10.5875 26.5751C11.7947 26.5751 12.9524 26.0956 13.806 25.242L17.316 21.731C18.8355 21.9699 20.3918 21.7542 21.789 21.111C21.399 21.9932 20.8487 22.7955 20.166 23.477L16.104 27.54C14.641 29.0032 12.6566 29.8253 10.5874 29.8254C8.51819 29.8255 6.53372 29.0036 5.07052 27.5405C3.60732 26.0774 2.78525 24.093 2.78516 22.0239C2.78506 19.9547 3.60695 17.9702 5.07002 16.507L9.13302 12.445C10.0015 11.5749 11.0636 10.9227 12.2324 10.5417C13.4012 10.1608 14.6436 10.0618 15.858 10.253" fill="url(#paint7_radial_22_371)"/>
<path d="M15.859 10.253C17.4912 10.5073 18.9999 11.2751 20.166 12.445C21.3095 13.5851 22.0694 15.0531 22.34 16.645L21.743 17.242C21.0469 17.94 20.1422 18.3918 19.166 18.529C19.2533 17.8407 19.1817 17.1416 18.9567 16.4852C18.7317 15.8289 18.3593 15.2329 17.868 14.743C17.3693 14.243 16.7608 13.8662 16.0909 13.6426C15.4209 13.419 14.7081 13.3547 14.009 13.455C13.0327 13.5925 12.128 14.0447 11.432 14.743L7.36902 18.805C6.51542 19.6586 6.03587 20.8163 6.03587 22.0235C6.03587 23.2307 6.51542 24.3884 7.36902 25.242C8.22262 26.0956 9.38035 26.5751 10.5875 26.5751C11.7947 26.5751 12.9524 26.0956 13.806 25.242L17.316 21.731C18.8355 21.9699 20.3918 21.7542 21.789 21.111C21.399 21.9932 20.8487 22.7955 20.166 23.477L16.104 27.54C14.641 29.0032 12.6566 29.8253 10.5874 29.8254C8.51819 29.8255 6.53372 29.0036 5.07052 27.5405C3.60732 26.0774 2.78525 24.093 2.78516 22.0239C2.78506 19.9547 3.60695 17.9702 5.07002 16.507L9.13302 12.445C10.0015 11.5749 11.0636 10.9227 12.2324 10.5417C13.4012 10.1608 14.6436 10.0618 15.858 10.253" fill="url(#paint8_radial_22_371)"/>
<path d="M15.859 10.253C17.4912 10.5073 18.9999 11.2751 20.166 12.445C21.3095 13.5851 22.0694 15.0531 22.34 16.645L21.743 17.242C21.0469 17.94 20.1422 18.3918 19.166 18.529C19.2533 17.8407 19.1817 17.1416 18.9567 16.4852C18.7317 15.8289 18.3593 15.2329 17.868 14.743C17.3693 14.243 16.7608 13.8662 16.0909 13.6426C15.4209 13.419 14.7081 13.3547 14.009 13.455C13.0327 13.5925 12.128 14.0447 11.432 14.743L7.36902 18.805C6.51542 19.6586 6.03587 20.8163 6.03587 22.0235C6.03587 23.2307 6.51542 24.3884 7.36902 25.242C8.22262 26.0956 9.38035 26.5751 10.5875 26.5751C11.7947 26.5751 12.9524 26.0956 13.806 25.242L17.316 21.731C18.8355 21.9699 20.3918 21.7542 21.789 21.111C21.399 21.9932 20.8487 22.7955 20.166 23.477L16.104 27.54C14.641 29.0032 12.6566 29.8253 10.5874 29.8254C8.51819 29.8255 6.53372 29.0036 5.07052 27.5405C3.60732 26.0774 2.78525 24.093 2.78516 22.0239C2.78506 19.9547 3.60695 17.9702 5.07002 16.507L9.13302 12.445C10.0015 11.5749 11.0636 10.9227 12.2324 10.5417C13.4012 10.1608 14.6436 10.0618 15.858 10.253" fill="url(#paint9_linear_22_371)"/>
<path d="M15.859 10.253C17.4912 10.5073 18.9999 11.2751 20.166 12.445C21.3095 13.5851 22.0694 15.0531 22.34 16.645L21.743 17.242C21.0469 17.94 20.1422 18.3918 19.166 18.529C19.2533 17.8407 19.1817 17.1416 18.9567 16.4852C18.7317 15.8289 18.3593 15.2329 17.868 14.743C17.3693 14.243 16.7608 13.8662 16.0909 13.6426C15.4209 13.419 14.7081 13.3547 14.009 13.455C13.0327 13.5925 12.128 14.0447 11.432 14.743L7.36902 18.805C6.51542 19.6586 6.03587 20.8163 6.03587 22.0235C6.03587 23.2307 6.51542 24.3884 7.36902 25.242C8.22262 26.0956 9.38035 26.5751 10.5875 26.5751C11.7947 26.5751 12.9524 26.0956 13.806 25.242L17.316 21.731C18.8355 21.9699 20.3918 21.7542 21.789 21.111C21.399 21.9932 20.8487 22.7955 20.166 23.477L16.104 27.54C14.641 29.0032 12.6566 29.8253 10.5874 29.8254C8.51819 29.8255 6.53372 29.0036 5.07052 27.5405C3.60732 26.0774 2.78525 24.093 2.78516 22.0239C2.78506 19.9547 3.60695 17.9702 5.07002 16.507L9.13302 12.445C10.0015 11.5749 11.0636 10.9227 12.2324 10.5417C13.4012 10.1608 14.6436 10.0618 15.858 10.253" fill="url(#paint10_radial_22_371)"/>
<path d="M15.859 10.253C17.4912 10.5073 18.9999 11.2751 20.166 12.445C21.3095 13.5851 22.0694 15.0531 22.34 16.645L21.743 17.242C21.0469 17.94 20.1422 18.3918 19.166 18.529C19.2533 17.8407 19.1817 17.1416 18.9567 16.4852C18.7317 15.8289 18.3593 15.2329 17.868 14.743C17.3693 14.243 16.7608 13.8662 16.0909 13.6426C15.4209 13.419 14.7081 13.3547 14.009 13.455C13.0327 13.5925 12.128 14.0447 11.432 14.743L7.36902 18.805C6.51542 19.6586 6.03587 20.8163 6.03587 22.0235C6.03587 23.2307 6.51542 24.3884 7.36902 25.242C8.22262 26.0956 9.38035 26.5751 10.5875 26.5751C11.7947 26.5751 12.9524 26.0956 13.806 25.242L17.316 21.731C18.8355 21.9699 20.3918 21.7542 21.789 21.111C21.399 21.9932 20.8487 22.7955 20.166 23.477L16.104 27.54C14.641 29.0032 12.6566 29.8253 10.5874 29.8254C8.51819 29.8255 6.53372 29.0036 5.07052 27.5405C3.60732 26.0774 2.78525 24.093 2.78516 22.0239C2.78506 19.9547 3.60695 17.9702 5.07002 16.507L9.13302 12.445C10.0015 11.5749 11.0636 10.9227 12.2324 10.5417C13.4012 10.1608 14.6436 10.0618 15.858 10.253" fill="url(#paint11_radial_22_371)"/>
<g filter="url(#filter3_f_22_371)">
<path d="M19.2343 13.3213L19.2336 13.3206C16.7557 10.8427 12.7383 10.8427 10.2604 13.3206L6.60185 16.9792C4.12397 19.457 4.12397 23.4745 6.60185 25.9523L6.60255 25.9531C9.08043 28.4309 13.0979 28.4309 15.5757 25.9531L19.2343 22.2945C21.7122 19.8166 21.7122 15.7992 19.2343 13.3213Z" stroke="url(#paint12_linear_22_371)" stroke-width="1.25"/>
<path d="M19.2343 13.3213L19.2336 13.3206C16.7557 10.8427 12.7383 10.8427 10.2604 13.3206L6.60185 16.9792C4.12397 19.457 4.12397 23.4745 6.60185 25.9523L6.60255 25.9531C9.08043 28.4309 13.0979 28.4309 15.5757 25.9531L19.2343 22.2945C21.7122 19.8166 21.7122 15.7992 19.2343 13.3213Z" stroke="url(#paint13_linear_22_371)" stroke-width="1.25"/>
</g>
</g>
<defs>
<filter id="filter0_i_22_371" x="10.836" y="1.50937" width="20.2041" height="20.3161" filterUnits="userSpaceOnUse" color-interpolation-filters="sRGB">
<feFlood flood-opacity="0" result="BackgroundImageFix"/>
<feBlend mode="normal" in="SourceGraphic" in2="BackgroundImageFix" result="shape"/>
<feColorMatrix in="SourceAlpha" type="matrix" values="0 0 0 0 0 0 0 0 0 0 0 0 0 0 0 0 0 0 127 0" result="hardAlpha"/>
<feOffset dx="0.65" dy="-0.65"/>
<feGaussianBlur stdDeviation="0.6"/>
<feComposite in2="hardAlpha" operator="arithmetic" k2="-1" k3="1"/>
<feColorMatrix type="matrix" values="0 0 0 0 0.65098 0 0 0 0 0.588235 0 0 0 0 0.701961 0 0 0 1 0"/>
<feBlend mode="normal" in2="shape" result="effect1_innerShadow_22_371"/>
</filter>
<filter id="filter1_f_22_371" x="10.8494" y="1.84619" width="20.1473" height="20.1473" filterUnits="userSpaceOnUse" color-interpolation-filters="sRGB">
<feFlood flood-opacity="0" result="BackgroundImageFix"/>
<feBlend mode="normal" in="SourceGraphic" in2="BackgroundImageFix" result="shape"/>
<feGaussianBlur stdDeviation="0.5" result="effect1_foregroundBlur_22_371"/>
</filter>
<filter id="filter2_i_22_371" x="2.78516" y="9.50822" width="20.2049" height="20.3171" filterUnits="userSpaceOnUse" color-interpolation-filters="sRGB">
<feFlood flood-opacity="0" result="BackgroundImageFix"/>
<feBlend mode="normal" in="SourceGraphic" in2="BackgroundImageFix" result="shape"/>
<feColorMatrix in="SourceAlpha" type="matrix" values="0 0 0 0 0 0 0 0 0 0 0 0 0 0 0 0 0 0 127 0" result="hardAlpha"/>
<feOffset dx="0.65" dy="-0.65"/>
<feGaussianBlur stdDeviation="0.6"/>
<feComposite in2="hardAlpha" operator="arithmetic" k2="-1" k3="1"/>
<feColorMatrix type="matrix" values="0 0 0 0 0.65098 0 0 0 0 0.588235 0 0 0 0 0.701961 0 0 0 1 0"/>
<feBlend mode="normal" in2="shape" result="effect1_innerShadow_22_371"/>
</filter>
<filter id="filter3_f_22_371" x="3.11841" y="9.83718" width="19.5993" height="19.5993" filterUnits="userSpaceOnUse" color-interpolation-filters="sRGB">
<feFlood flood-opacity="0" result="BackgroundImageFix"/>
<feBlend mode="normal" in="SourceGraphic" in2="BackgroundImageFix" result="shape"/>
<feGaussianBlur stdDeviation="0.5" result="effect1_foregroundBlur_22_371"/>
</filter>
<radialGradient id="paint0_radial_22_371" cx="0" cy="0" r="1" gradientUnits="userSpaceOnUse" gradientTransform="translate(19.3217 9.16694) rotate(89.324) scale(13.7774 14.0197)">
<stop offset="0.774" stop-color="#A08FAF" stop-opacity="0"/>
<stop offset="0.969" stop-color="#8C72A5"/>
</radialGradient>
<radialGradient id="paint1_radial_22_371" cx="0" cy="0" r="1" gradientUnits="userSpaceOnUse" gradientTransform="translate(14.566 10.793) rotate(-71.2884) scale(2.66018 7.53108)">
<stop stop-color="#CDC4D3"/>
<stop offset="1" stop-color="#CDC4D3" stop-opacity="0"/>
</radialGradient>
<linearGradient id="paint2_linear_22_371" x1="12.25" y1="8.395" x2="13.753" y2="9.939" gradientUnits="userSpaceOnUse">
<stop offset="0.299" stop-color="#DED6E0"/>
<stop offset="1" stop-color="#DED6E0" stop-opacity="0"/>
</linearGradient>
<radialGradient id="paint3_radial_22_371" cx="0" cy="0" r="1" gradientUnits="userSpaceOnUse" gradientTransform="translate(23.385 7.86701) rotate(-77.9885) scale(3.90551 5.04383)">
<stop stop-color="#9378A9"/>
<stop offset="1" stop-color="#AB9FB5" stop-opacity="0"/>
</radialGradient>
<radialGradient id="paint4_radial_22_371" cx="0" cy="0" r="1" gradientUnits="userSpaceOnUse" gradientTransform="translate(12.087 14.044) rotate(71.2884) scale(2.66018 6.77493)">
<stop offset="0.161" stop-color="#9789A3"/>
<stop offset="1" stop-color="#9789A3" stop-opacity="0"/>
</radialGradient>
<linearGradient id="paint5_linear_22_371" x1="32.7148" y1="7.80235" x2="24.0895" y2="10.174" gradientUnits="userSpaceOnUse">
<stop offset="0.272" stop-color="#F1E9F5"/>
<stop offset="1" stop-color="#F1E9F5" stop-opacity="0"/>
</linearGradient>
<linearGradient id="paint6_linear_22_371" x1="11.7618" y1="12.54" x2="16.7377" y2="13.9818" gradientUnits="userSpaceOnUse">
<stop offset="0.143" stop-color="#C9BDD2"/>
<stop offset="1" stop-color="#C9BDD2" stop-opacity="0"/>
</linearGradient>
<radialGradient id="paint7_radial_22_371" cx="0" cy="0" r="1" gradientUnits="userSpaceOnUse" gradientTransform="translate(11.271 17.1672) rotate(89.324) scale(13.7774 14.0197)">
<stop offset="0.774" stop-color="#A08FAF" stop-opacity="0"/>
<stop offset="0.969" stop-color="#8C72A5"/>
</radialGradient>
<radialGradient id="paint8_radial_22_371" cx="0" cy="0" r="1" gradientUnits="userSpaceOnUse" gradientTransform="translate(6.51702 18.793) rotate(-71.2884) scale(2.66018 7.53108)">
<stop stop-color="#CDC4D3"/>
<stop offset="1" stop-color="#CDC4D3" stop-opacity="0"/>
</radialGradient>
<linearGradient id="paint9_linear_22_371" x1="4.20102" y1="16.395" x2="5.70502" y2="17.939" gradientUnits="userSpaceOnUse">
<stop stop-color="#DED6E0"/>
<stop offset="1" stop-color="#DED6E0" stop-opacity="0"/>
</linearGradient>
<radialGradient id="paint10_radial_22_371" cx="0" cy="0" r="1" gradientUnits="userSpaceOnUse" gradientTransform="translate(15.336 15.867) rotate(-77.9885) scale(3.90551 5.04383)">
<stop offset="0.373" stop-color="#9378A9"/>
<stop offset="1" stop-color="#AB9FB5" stop-opacity="0"/>
</radialGradient>
<radialGradient id="paint11_radial_22_371" cx="0" cy="0" r="1" gradientUnits="userSpaceOnUse" gradientTransform="translate(21.515 19.042) rotate(140.842) scale(6.21042 3.61585)">
<stop offset="0.249" stop-color="#92889C"/>
<stop offset="1" stop-color="#92889C" stop-opacity="0"/>
</radialGradient>
<linearGradient id="paint12_linear_22_371" x1="18.6481" y1="10.4908" x2="15.6896" y2="17.7513" gradientUnits="userSpaceOnUse">
<stop stop-color="#F1E9F5"/>
<stop offset="1" stop-color="#F1E9F5" stop-opacity="0"/>
</linearGradient>
<linearGradient id="paint13_linear_22_371" x1="7.15198" y1="26.5788" x2="9.03995" y2="21.704" gradientUnits="userSpaceOnUse">
<stop offset="0.143" stop-color="#E3D8EA"/>
<stop offset="1" stop-color="#E3D8EA" stop-opacity="0"/>
</linearGradient>
</defs>
</svg>
