<svg width="32" height="32" viewBox="0 0 32 32" fill="none" xmlns="http://www.w3.org/2000/svg">
<path d="M11.534 12.626L18.886 19.978L25.409 13.454L18.058 6.103L11.534 12.626Z" fill="#D93965"/>
<path d="M11.534 12.626L18.886 19.978L25.409 13.454L18.058 6.103L11.534 12.626Z" fill="url(#paint0_linear_22_326)"/>
<path d="M11.534 12.626L18.886 19.978L25.409 13.454L18.058 6.103L11.534 12.626Z" fill="url(#paint1_linear_22_326)"/>
<path d="M11.534 12.626L18.886 19.978L25.409 13.454L18.058 6.103L11.534 12.626Z" fill="url(#paint2_linear_22_326)"/>
<g filter="url(#filter0_i_22_326)">
<path d="M18.02 2.375C18.1593 2.23561 18.3247 2.12503 18.5068 2.04959C18.6888 1.97415 18.884 1.93532 19.081 1.93532C19.2781 1.93532 19.4732 1.97415 19.6553 2.04959C19.8373 2.12503 20.0027 2.23561 20.142 2.375L29.138 11.37C29.2774 11.5093 29.388 11.6747 29.4634 11.8568C29.5389 12.0388 29.5777 12.2339 29.5777 12.431C29.5777 12.6281 29.5389 12.8232 29.4634 13.0052C29.388 13.1873 29.2774 13.3527 29.138 13.492L28.47 14.159C28.21 14.419 27.9013 14.6253 27.5616 14.766C27.2219 14.9068 26.8578 14.9792 26.49 14.9792C26.1223 14.9792 25.7582 14.9068 25.4185 14.766C25.0787 14.6253 24.77 14.419 24.51 14.159L17.353 7.002C17.093 6.74199 16.8867 6.43331 16.746 6.09358C16.6053 5.75385 16.5328 5.38972 16.5328 5.022C16.5328 4.65427 16.6053 4.29015 16.746 3.95042C16.8867 3.61069 17.093 3.30201 17.353 3.042L18.02 2.375Z" fill="url(#paint3_linear_22_326)"/>
<path d="M18.02 2.375C18.1593 2.23561 18.3247 2.12503 18.5068 2.04959C18.6888 1.97415 18.884 1.93532 19.081 1.93532C19.2781 1.93532 19.4732 1.97415 19.6553 2.04959C19.8373 2.12503 20.0027 2.23561 20.142 2.375L29.138 11.37C29.2774 11.5093 29.388 11.6747 29.4634 11.8568C29.5389 12.0388 29.5777 12.2339 29.5777 12.431C29.5777 12.6281 29.5389 12.8232 29.4634 13.0052C29.388 13.1873 29.2774 13.3527 29.138 13.492L28.47 14.159C28.21 14.419 27.9013 14.6253 27.5616 14.766C27.2219 14.9068 26.8578 14.9792 26.49 14.9792C26.1223 14.9792 25.7582 14.9068 25.4185 14.766C25.0787 14.6253 24.77 14.419 24.51 14.159L17.353 7.002C17.093 6.74199 16.8867 6.43331 16.746 6.09358C16.6053 5.75385 16.5328 5.38972 16.5328 5.022C16.5328 4.65427 16.6053 4.29015 16.746 3.95042C16.8867 3.61069 17.093 3.30201 17.353 3.042L18.02 2.375Z" fill="url(#paint4_radial_22_326)"/>
</g>
<path d="M13.296 16.38C13.5395 16.1365 13.8697 15.9998 14.214 15.9998C14.5583 15.9998 14.8886 16.1365 15.132 16.38C15.3755 16.6235 15.5123 16.9537 15.5123 17.298C15.5123 17.6423 15.3755 17.9725 15.132 18.216L4.16303 29.185C3.91956 29.4285 3.58934 29.5653 3.24503 29.5653C2.90071 29.5653 2.57049 29.4285 2.32703 29.185C2.08356 28.9415 1.94678 28.6113 1.94678 28.267C1.94678 27.9227 2.08356 27.5925 2.32703 27.349L13.296 16.38Z" fill="url(#paint5_linear_22_326)"/>
<path d="M13.296 16.38C13.5395 16.1365 13.8697 15.9998 14.214 15.9998C14.5583 15.9998 14.8886 16.1365 15.132 16.38C15.3755 16.6235 15.5123 16.9537 15.5123 17.298C15.5123 17.6423 15.3755 17.9725 15.132 18.216L4.16303 29.185C3.91956 29.4285 3.58934 29.5653 3.24503 29.5653C2.90071 29.5653 2.57049 29.4285 2.32703 29.185C2.08356 28.9415 1.94678 28.6113 1.94678 28.267C1.94678 27.9227 2.08356 27.5925 2.32703 27.349L13.296 16.38Z" fill="url(#paint6_radial_22_326)"/>
<path d="M13.296 16.38C13.5395 16.1365 13.8697 15.9998 14.214 15.9998C14.5583 15.9998 14.8886 16.1365 15.132 16.38C15.3755 16.6235 15.5123 16.9537 15.5123 17.298C15.5123 17.6423 15.3755 17.9725 15.132 18.216L4.16303 29.185C3.91956 29.4285 3.58934 29.5653 3.24503 29.5653C2.90071 29.5653 2.57049 29.4285 2.32703 29.185C2.08356 28.9415 1.94678 28.6113 1.94678 28.267C1.94678 27.9227 2.08356 27.5925 2.32703 27.349L13.296 16.38Z" fill="url(#paint7_radial_22_326)"/>
<path d="M13.296 16.38C13.5395 16.1365 13.8697 15.9998 14.214 15.9998C14.5583 15.9998 14.8886 16.1365 15.132 16.38C15.3755 16.6235 15.5123 16.9537 15.5123 17.298C15.5123 17.6423 15.3755 17.9725 15.132 18.216L4.16303 29.185C3.91956 29.4285 3.58934 29.5653 3.24503 29.5653C2.90071 29.5653 2.57049 29.4285 2.32703 29.185C2.08356 28.9415 1.94678 28.6113 1.94678 28.267C1.94678 27.9227 2.08356 27.5925 2.32703 27.349L13.296 16.38Z" fill="url(#paint8_radial_22_326)"/>
<g filter="url(#filter1_i_22_326)">
<path d="M6.31802 12.217C6.16472 12.3702 6.04311 12.5522 5.96015 12.7524C5.87718 12.9526 5.83447 13.1672 5.83447 13.384C5.83447 13.6007 5.87718 13.8154 5.96015 14.0156C6.04311 14.2158 6.16472 14.3978 6.31802 14.551L16.961 25.194C17.1142 25.3473 17.2962 25.4689 17.4964 25.5519C17.6967 25.6348 17.9113 25.6775 18.128 25.6775C18.3448 25.6775 18.5594 25.6348 18.7596 25.5519C18.9599 25.4689 19.1418 25.3473 19.295 25.194L19.971 24.517C20.3425 24.1456 20.6371 23.7046 20.8382 23.2193C21.0392 22.734 21.1427 22.2138 21.1427 21.6885C21.1427 21.1632 21.0392 20.643 20.8382 20.1577C20.6371 19.6724 20.3425 19.2314 19.971 18.86L12.651 11.54C11.9009 10.7901 10.8837 10.3689 9.82302 10.3689C8.76236 10.3689 7.74513 10.7901 6.99502 11.54L6.31802 12.217Z" fill="url(#paint9_linear_22_326)"/>
<path d="M6.31802 12.217C6.16472 12.3702 6.04311 12.5522 5.96015 12.7524C5.87718 12.9526 5.83447 13.1672 5.83447 13.384C5.83447 13.6007 5.87718 13.8154 5.96015 14.0156C6.04311 14.2158 6.16472 14.3978 6.31802 14.551L16.961 25.194C17.1142 25.3473 17.2962 25.4689 17.4964 25.5519C17.6967 25.6348 17.9113 25.6775 18.128 25.6775C18.3448 25.6775 18.5594 25.6348 18.7596 25.5519C18.9599 25.4689 19.1418 25.3473 19.295 25.194L19.971 24.517C20.3425 24.1456 20.6371 23.7046 20.8382 23.2193C21.0392 22.734 21.1427 22.2138 21.1427 21.6885C21.1427 21.1632 21.0392 20.643 20.8382 20.1577C20.6371 19.6724 20.3425 19.2314 19.971 18.86L12.651 11.54C11.9009 10.7901 10.8837 10.3689 9.82302 10.3689C8.76236 10.3689 7.74513 10.7901 6.99502 11.54L6.31802 12.217Z" fill="url(#paint10_radial_22_326)"/>
<path d="M6.31802 12.217C6.16472 12.3702 6.04311 12.5522 5.96015 12.7524C5.87718 12.9526 5.83447 13.1672 5.83447 13.384C5.83447 13.6007 5.87718 13.8154 5.96015 14.0156C6.04311 14.2158 6.16472 14.3978 6.31802 14.551L16.961 25.194C17.1142 25.3473 17.2962 25.4689 17.4964 25.5519C17.6967 25.6348 17.9113 25.6775 18.128 25.6775C18.3448 25.6775 18.5594 25.6348 18.7596 25.5519C18.9599 25.4689 19.1418 25.3473 19.295 25.194L19.971 24.517C20.3425 24.1456 20.6371 23.7046 20.8382 23.2193C21.0392 22.734 21.1427 22.2138 21.1427 21.6885C21.1427 21.1632 21.0392 20.643 20.8382 20.1577C20.6371 19.6724 20.3425 19.2314 19.971 18.86L12.651 11.54C11.9009 10.7901 10.8837 10.3689 9.82302 10.3689C8.76236 10.3689 7.74513 10.7901 6.99502 11.54L6.31802 12.217Z" fill="url(#paint11_radial_22_326)"/>
<path d="M6.31802 12.217C6.16472 12.3702 6.04311 12.5522 5.96015 12.7524C5.87718 12.9526 5.83447 13.1672 5.83447 13.384C5.83447 13.6007 5.87718 13.8154 5.96015 14.0156C6.04311 14.2158 6.16472 14.3978 6.31802 14.551L16.961 25.194C17.1142 25.3473 17.2962 25.4689 17.4964 25.5519C17.6967 25.6348 17.9113 25.6775 18.128 25.6775C18.3448 25.6775 18.5594 25.6348 18.7596 25.5519C18.9599 25.4689 19.1418 25.3473 19.295 25.194L19.971 24.517C20.3425 24.1456 20.6371 23.7046 20.8382 23.2193C21.0392 22.734 21.1427 22.2138 21.1427 21.6885C21.1427 21.1632 21.0392 20.643 20.8382 20.1577C20.6371 19.6724 20.3425 19.2314 19.971 18.86L12.651 11.54C11.9009 10.7901 10.8837 10.3689 9.82302 10.3689C8.76236 10.3689 7.74513 10.7901 6.99502 11.54L6.31802 12.217Z" fill="url(#paint12_radial_22_326)"/>
</g>
<g filter="url(#filter2_f_22_326)">
<path d="M3.26703 28.201L10.045 21.398" stroke="url(#paint13_linear_22_326)" stroke-width="0.65" stroke-linecap="round"/>
</g>
<defs>
<filter id="filter0_i_22_326" x="16.5328" y="0.935318" width="14.0449" height="14.0439" filterUnits="userSpaceOnUse" color-interpolation-filters="sRGB">
<feFlood flood-opacity="0" result="BackgroundImageFix"/>
<feBlend mode="normal" in="SourceGraphic" in2="BackgroundImageFix" result="shape"/>
<feColorMatrix in="SourceAlpha" type="matrix" values="0 0 0 0 0 0 0 0 0 0 0 0 0 0 0 0 0 0 127 0" result="hardAlpha"/>
<feOffset dx="1" dy="-1"/>
<feGaussianBlur stdDeviation="1"/>
<feComposite in2="hardAlpha" operator="arithmetic" k2="-1" k3="1"/>
<feColorMatrix type="matrix" values="0 0 0 0 0.764706 0 0 0 0 0.109804 0 0 0 0 0.301961 0 0 0 1 0"/>
<feBlend mode="normal" in2="shape" result="effect1_innerShadow_22_326"/>
</filter>
<filter id="filter1_i_22_326" x="5.83447" y="9.36885" width="16.3082" height="16.3087" filterUnits="userSpaceOnUse" color-interpolation-filters="sRGB">
<feFlood flood-opacity="0" result="BackgroundImageFix"/>
<feBlend mode="normal" in="SourceGraphic" in2="BackgroundImageFix" result="shape"/>
<feColorMatrix in="SourceAlpha" type="matrix" values="0 0 0 0 0 0 0 0 0 0 0 0 0 0 0 0 0 0 127 0" result="hardAlpha"/>
<feOffset dx="1" dy="-1"/>
<feGaussianBlur stdDeviation="1"/>
<feComposite in2="hardAlpha" operator="arithmetic" k2="-1" k3="1"/>
<feColorMatrix type="matrix" values="0 0 0 0 0.827451 0 0 0 0 0.133333 0 0 0 0 0.372549 0 0 0 1 0"/>
<feBlend mode="normal" in2="shape" result="effect1_innerShadow_22_326"/>
</filter>
<filter id="filter2_f_22_326" x="2.44202" y="20.573" width="8.42804" height="8.453" filterUnits="userSpaceOnUse" color-interpolation-filters="sRGB">
<feFlood flood-opacity="0" result="BackgroundImageFix"/>
<feBlend mode="normal" in="SourceGraphic" in2="BackgroundImageFix" result="shape"/>
<feGaussianBlur stdDeviation="0.25" result="effect1_foregroundBlur_22_326"/>
</filter>
<linearGradient id="paint0_linear_22_326" x1="14.784" y1="9.579" x2="18.972" y2="13.954" gradientUnits="userSpaceOnUse">
<stop stop-color="#A7404E"/>
<stop offset="1" stop-color="#A7404E" stop-opacity="0"/>
</linearGradient>
<linearGradient id="paint1_linear_22_326" x1="22.378" y1="17.298" x2="19.378" y2="14.454" gradientUnits="userSpaceOnUse">
<stop stop-color="#9C475F"/>
<stop offset="1" stop-color="#D32A60" stop-opacity="0"/>
</linearGradient>
<linearGradient id="paint2_linear_22_326" x1="22.503" y1="11.236" x2="21.44" y2="12.329" gradientUnits="userSpaceOnUse">
<stop offset="0.208" stop-color="#A72249"/>
<stop offset="1" stop-color="#B14162" stop-opacity="0"/>
</linearGradient>
<linearGradient id="paint3_linear_22_326" x1="16.533" y1="3.142" x2="28.222" y2="14.329" gradientUnits="userSpaceOnUse">
<stop stop-color="#E52C70"/>
<stop offset="1" stop-color="#FC3154"/>
</linearGradient>
<radialGradient id="paint4_radial_22_326" cx="0" cy="0" r="1" gradientUnits="userSpaceOnUse" gradientTransform="translate(25.503 8.89111) rotate(136.081) scale(1.17135 7.48692)">
<stop stop-color="#FF688C"/>
<stop offset="1" stop-color="#FF688C" stop-opacity="0"/>
</radialGradient>
<linearGradient id="paint5_linear_22_326" x1="5.50903" y1="24.023" x2="7.65003" y2="25.908" gradientUnits="userSpaceOnUse">
<stop stop-color="#9D9798"/>
<stop offset="0.867" stop-color="#9B8EA4"/>
</linearGradient>
<radialGradient id="paint6_radial_22_326" cx="0" cy="0" r="1" gradientUnits="userSpaceOnUse" gradientTransform="translate(11.166 18.672) rotate(134.341) scale(9.40514 2.24299)">
<stop stop-color="#8C6E76"/>
<stop offset="1" stop-color="#8C6E76" stop-opacity="0"/>
</radialGradient>
<radialGradient id="paint7_radial_22_326" cx="0" cy="0" r="1" gradientUnits="userSpaceOnUse" gradientTransform="translate(12.644 21.014) rotate(135) scale(9.87294 2.16196)">
<stop offset="0.157" stop-color="#7C547B"/>
<stop offset="1" stop-color="#7C547B" stop-opacity="0"/>
</radialGradient>
<radialGradient id="paint8_radial_22_326" cx="0" cy="0" r="1" gradientUnits="userSpaceOnUse" gradientTransform="translate(6.98703 17.551) rotate(107.204) scale(12.5769 6.44157)">
<stop offset="0.899" stop-color="#826F91" stop-opacity="0"/>
<stop offset="1" stop-color="#826F91"/>
</radialGradient>
<linearGradient id="paint9_linear_22_326" x1="9.97202" y1="11.267" x2="20.597" y2="23.954" gradientUnits="userSpaceOnUse">
<stop stop-color="#E72F7B"/>
<stop offset="1" stop-color="#F63352"/>
</linearGradient>
<radialGradient id="paint10_radial_22_326" cx="0" cy="0" r="1" gradientUnits="userSpaceOnUse" gradientTransform="translate(16.2212 17.5799) rotate(131.424) scale(2.83395 7.45916)">
<stop offset="0.151" stop-color="#FF678C"/>
<stop offset="1" stop-color="#FF678C" stop-opacity="0"/>
</radialGradient>
<radialGradient id="paint11_radial_22_326" cx="0" cy="0" r="1" gradientUnits="userSpaceOnUse" gradientTransform="translate(9.78402 19.454) rotate(10.1981) scale(12.0021 18.4941)">
<stop offset="0.717" stop-color="#FF6773" stop-opacity="0"/>
<stop offset="1" stop-color="#FF6773"/>
</radialGradient>
<radialGradient id="paint12_radial_22_326" cx="0" cy="0" r="1" gradientUnits="userSpaceOnUse" gradientTransform="translate(16.8741 21.2704) rotate(-133.794) scale(13.6954)">
<stop offset="0.816" stop-color="#C95179" stop-opacity="0"/>
<stop offset="1" stop-color="#C95179"/>
</radialGradient>
<linearGradient id="paint13_linear_22_326" x1="3.26703" y1="28.405" x2="10.197" y2="21.653" gradientUnits="userSpaceOnUse">
<stop stop-color="#A9A1AC"/>
<stop offset="1" stop-color="#A9A1AC" stop-opacity="0"/>
</linearGradient>
</defs>
</svg>
