<svg width="32" height="32" viewBox="0 0 32 32" fill="none" xmlns="http://www.w3.org/2000/svg">
<mask id="mask0_6_263" style="mask-type:luminance" maskUnits="userSpaceOnUse" x="0" y="0" width="32" height="32">
<path d="M0 0H32V32H0V0Z" fill="white"/>
</mask>
<g mask="url(#mask0_6_263)">
<path d="M15.125 29.202C15.3876 29.3467 15.6832 29.4206 15.983 29.4166C16.2828 29.4125 16.5764 29.3307 16.835 29.179C20.419 27.132 26.645 22.418 29.091 16.295C32.68 8.322 24.252 1.958 18.428 6.535C17.821 7.013 17.057 7.56 16.531 8.077C16.293 8.311 15.874 8.335 15.628 8.111C14.937 7.481 13.856 6.675 13.163 6.206C8.19698 2.846 -0.837023 7.275 3.01598 16.726C4.42798 20.968 11.156 26.986 15.126 29.202" fill="url(#paint0_radial_6_263)"/>
<path d="M15.125 29.202C15.3876 29.3467 15.6832 29.4206 15.983 29.4166C16.2828 29.4125 16.5764 29.3307 16.835 29.179C20.419 27.132 26.645 22.418 29.091 16.295C32.68 8.322 24.252 1.958 18.428 6.535C17.821 7.013 17.057 7.56 16.531 8.077C16.293 8.311 15.874 8.335 15.628 8.111C14.937 7.481 13.856 6.675 13.163 6.206C8.19698 2.846 -0.837023 7.275 3.01598 16.726C4.42798 20.968 11.156 26.986 15.126 29.202" fill="url(#paint1_radial_6_263)"/>
<path d="M15.125 29.202C15.3876 29.3467 15.6832 29.4206 15.983 29.4166C16.2828 29.4125 16.5764 29.3307 16.835 29.179C20.419 27.132 26.645 22.418 29.091 16.295C32.68 8.322 24.252 1.958 18.428 6.535C17.821 7.013 17.057 7.56 16.531 8.077C16.293 8.311 15.874 8.335 15.628 8.111C14.937 7.481 13.856 6.675 13.163 6.206C8.19698 2.846 -0.837023 7.275 3.01598 16.726C4.42798 20.968 11.156 26.986 15.126 29.202" fill="url(#paint2_radial_6_263)"/>
<path d="M15.125 29.202C15.3876 29.3467 15.6832 29.4206 15.983 29.4166C16.2828 29.4125 16.5764 29.3307 16.835 29.179C20.419 27.132 26.645 22.418 29.091 16.295C32.68 8.322 24.252 1.958 18.428 6.535C17.821 7.013 17.057 7.56 16.531 8.077C16.293 8.311 15.874 8.335 15.628 8.111C14.937 7.481 13.856 6.675 13.163 6.206C8.19698 2.846 -0.837023 7.275 3.01598 16.726C4.42798 20.968 11.156 26.986 15.126 29.202" fill="url(#paint3_radial_6_263)"/>
<path d="M15.125 29.202C15.3876 29.3467 15.6832 29.4206 15.983 29.4166C16.2828 29.4125 16.5764 29.3307 16.835 29.179C20.419 27.132 26.645 22.418 29.091 16.295C32.68 8.322 24.252 1.958 18.428 6.535C17.821 7.013 17.057 7.56 16.531 8.077C16.293 8.311 15.874 8.335 15.628 8.111C14.937 7.481 13.856 6.675 13.163 6.206C8.19698 2.846 -0.837023 7.275 3.01598 16.726C4.42798 20.968 11.156 26.986 15.126 29.202" fill="url(#paint4_radial_6_263)"/>
<path d="M24.349 23.313C26.288 21.301 28.039 18.928 29.09 16.295C32.68 8.323 24.2519 1.959 18.4279 6.535C18.2779 6.655 18.1169 6.777 17.9529 6.903C17.4559 7.283 16.926 7.688 16.531 8.077C16.4086 8.1948 16.2467 8.26257 16.077 8.267L16.075 8.27L24.349 23.313Z" fill="url(#paint5_radial_6_263)"/>
<path d="M3.34998 17.558C5.27598 21.721 11.409 27.128 15.125 29.202C15.3875 29.3468 15.6831 29.4209 15.9829 29.4171C16.2827 29.4132 16.5763 29.3315 16.835 29.18C20.168 27.275 25.788 23.064 28.525 17.558H3.34998Z" fill="url(#paint6_radial_6_263)"/>
<path d="M3.34998 17.558C5.27598 21.721 11.409 27.128 15.125 29.202C15.3875 29.3468 15.6831 29.4209 15.9829 29.4171C16.2827 29.4132 16.5763 29.3315 16.835 29.18C20.168 27.275 25.788 23.064 28.525 17.558H3.34998Z" fill="url(#paint7_linear_6_263)"/>
<path d="M3.34998 17.558C5.27598 21.721 11.409 27.128 15.125 29.202C15.3875 29.3468 15.6831 29.4209 15.9829 29.4171C16.2827 29.4132 16.5763 29.3315 16.835 29.18C20.168 27.275 25.788 23.064 28.525 17.558H3.34998Z" fill="url(#paint8_linear_6_263)"/>
<path d="M15.6279 8.11C16.5739 8.971 18.0839 8.76 18.9379 7.808C19.8529 6.79 21.0839 5.733 22.5769 5.002C21.1729 5.032 19.7349 5.509 18.4279 6.536C18.2779 6.654 18.1169 6.777 17.9529 6.902C17.4559 7.282 16.9259 7.688 16.5309 8.077C16.2929 8.311 15.8739 8.335 15.6279 8.111" fill="url(#paint9_linear_6_263)"/>
<g filter="url(#filter0_f_6_263)">
<path d="M25.638 5.973C28.236 7.043 29.613 9.461 27.981 13.428C25.106 18.865 22.018 18.961 20.418 18.303C18.543 17.178 17.223 13.894 18.856 9.928C20.489 5.962 23.04 4.904 25.638 5.973Z" fill="url(#paint10_radial_6_263)" fill-opacity="0.6"/>
</g>
<g filter="url(#filter1_f_6_263)">
<path d="M16.708 9.32V21.788C19.71 16.121 25.56 9.215 23.085 6.308C22.25 5.328 19.79 6.231 17.047 8.575C16.9403 8.6673 16.8547 8.78155 16.7962 8.90996C16.7377 9.03837 16.7076 9.17889 16.708 9.32Z" fill="url(#paint11_linear_6_263)"/>
</g>
<g filter="url(#filter2_f_6_263)">
<path d="M22.771 6.115C23.858 5.98 26.834 6.396 28.052 9.803" stroke="url(#paint12_linear_6_263)" stroke-width="0.25" stroke-linecap="round"/>
</g>
<g filter="url(#filter3_f_6_263)">
<path d="M14.8609 9.18L15.0659 22.587C8.19094 15.9 6.95994 8.734 9.29794 7.127C10.9679 5.98 14.1109 7.617 14.8609 9.18Z" fill="url(#paint13_radial_6_263)" fill-opacity="0.6"/>
</g>
<g filter="url(#filter4_f_6_263)">
<path d="M27.807 10.929C27.171 15.436 22.027 22.949 17.231 26.474" stroke="url(#paint14_linear_6_263)" stroke-width="2" stroke-linecap="round"/>
</g>
<g filter="url(#filter5_f_6_263)">
<path d="M6.89795 20.308C8.89795 23.158 13.5229 27.038 15.5849 28.621L12.7729 17.683L6.89795 20.308Z" fill="url(#paint15_linear_6_263)"/>
</g>
</g>
<defs>
<filter id="filter0_f_6_263" x="16.6168" y="4.08166" width="13.5688" height="16.0018" filterUnits="userSpaceOnUse" color-interpolation-filters="sRGB">
<feFlood flood-opacity="0" result="BackgroundImageFix"/>
<feBlend mode="normal" in="SourceGraphic" in2="BackgroundImageFix" result="shape"/>
<feGaussianBlur stdDeviation="0.75" result="effect1_foregroundBlur_6_263"/>
</filter>
<filter id="filter1_f_6_263" x="14.708" y="3.9173" width="10.9725" height="19.8707" filterUnits="userSpaceOnUse" color-interpolation-filters="sRGB">
<feFlood flood-opacity="0" result="BackgroundImageFix"/>
<feBlend mode="normal" in="SourceGraphic" in2="BackgroundImageFix" result="shape"/>
<feGaussianBlur stdDeviation="1" result="effect1_foregroundBlur_6_263"/>
</filter>
<filter id="filter2_f_6_263" x="21.646" y="4.96862" width="7.53101" height="5.95941" filterUnits="userSpaceOnUse" color-interpolation-filters="sRGB">
<feFlood flood-opacity="0" result="BackgroundImageFix"/>
<feBlend mode="normal" in="SourceGraphic" in2="BackgroundImageFix" result="shape"/>
<feGaussianBlur stdDeviation="0.5" result="effect1_foregroundBlur_6_263"/>
</filter>
<filter id="filter3_f_6_263" x="5.21338" y="3.74251" width="12.8525" height="21.8445" filterUnits="userSpaceOnUse" color-interpolation-filters="sRGB">
<feFlood flood-opacity="0" result="BackgroundImageFix"/>
<feBlend mode="normal" in="SourceGraphic" in2="BackgroundImageFix" result="shape"/>
<feGaussianBlur stdDeviation="1.5" result="effect1_foregroundBlur_6_263"/>
</filter>
<filter id="filter4_f_6_263" x="12.2308" y="5.92888" width="20.5762" height="25.5452" filterUnits="userSpaceOnUse" color-interpolation-filters="sRGB">
<feFlood flood-opacity="0" result="BackgroundImageFix"/>
<feBlend mode="normal" in="SourceGraphic" in2="BackgroundImageFix" result="shape"/>
<feGaussianBlur stdDeviation="2" result="effect1_foregroundBlur_6_263"/>
</filter>
<filter id="filter5_f_6_263" x="3.89795" y="14.683" width="14.687" height="16.938" filterUnits="userSpaceOnUse" color-interpolation-filters="sRGB">
<feFlood flood-opacity="0" result="BackgroundImageFix"/>
<feBlend mode="normal" in="SourceGraphic" in2="BackgroundImageFix" result="shape"/>
<feGaussianBlur stdDeviation="1.5" result="effect1_foregroundBlur_6_263"/>
</filter>
<radialGradient id="paint0_radial_6_263" cx="0" cy="0" r="1" gradientUnits="userSpaceOnUse" gradientTransform="translate(17.924 5.9) rotate(96.9923) scale(24.2214 29.9484)">
<stop offset="0.063" stop-color="#F5F3F8"/>
<stop offset="0.463" stop-color="#E4D9F1"/>
<stop offset="1" stop-color="#E3CCFB"/>
</radialGradient>
<radialGradient id="paint1_radial_6_263" cx="0" cy="0" r="1" gradientUnits="userSpaceOnUse" gradientTransform="translate(23.648 15.37) rotate(-164.21) scale(25.2658 15.2737)">
<stop offset="0.682" stop-color="#DCC2F7" stop-opacity="0"/>
<stop offset="1" stop-color="#DCC2F7"/>
</radialGradient>
<radialGradient id="paint2_radial_6_263" cx="0" cy="0" r="1" gradientUnits="userSpaceOnUse" gradientTransform="translate(19.71 18.37) rotate(-142.502) scale(21.6638 19.4675)">
<stop offset="0.69" stop-color="#B6B6B6" stop-opacity="0"/>
<stop offset="1" stop-color="#B6B6B6"/>
</radialGradient>
<radialGradient id="paint3_radial_6_263" cx="0" cy="0" r="1" gradientUnits="userSpaceOnUse" gradientTransform="translate(19.71 18.37) rotate(-142.502) scale(21.6638 19.4675)">
<stop offset="0.821" stop-color="#B6B6B6" stop-opacity="0"/>
<stop offset="1" stop-color="#919191"/>
</radialGradient>
<radialGradient id="paint4_radial_6_263" cx="0" cy="0" r="1" gradientUnits="userSpaceOnUse" gradientTransform="translate(18.71 11.183) rotate(142.021) scale(18.0784 25.2788)">
<stop offset="0.8" stop-color="#B6B6B6" stop-opacity="0"/>
<stop offset="1" stop-color="#B6B6B6"/>
</radialGradient>
<radialGradient id="paint5_radial_6_263" cx="0" cy="0" r="1" gradientUnits="userSpaceOnUse" gradientTransform="translate(21.913 15.61) rotate(-98.092) scale(12.3166 17.0058)">
<stop offset="0.565" stop-color="#B6B6B6" stop-opacity="0"/>
<stop offset="1" stop-color="#B6B6B6"/>
</radialGradient>
<radialGradient id="paint6_radial_6_263" cx="0" cy="0" r="1" gradientUnits="userSpaceOnUse" gradientTransform="translate(15.9331 14.1903) rotate(90) scale(15.8728 15.7131)">
<stop offset="0.751" stop-color="#DBAEFF" stop-opacity="0"/>
<stop offset="1" stop-color="#DBAEFF"/>
</radialGradient>
<linearGradient id="paint7_linear_6_263" x1="16.273" y1="17.246" x2="5.77298" y2="28.121" gradientUnits="userSpaceOnUse">
<stop offset="0.632" stop-color="#DBAEFF" stop-opacity="0"/>
<stop offset="1" stop-color="#DBAEFF"/>
</linearGradient>
<linearGradient id="paint8_linear_6_263" x1="16.273" y1="17.246" x2="25.773" y2="27.464" gradientUnits="userSpaceOnUse">
<stop offset="0.622" stop-color="#DBAEFF" stop-opacity="0"/>
<stop offset="1" stop-color="#DBAEFF"/>
</linearGradient>
<linearGradient id="paint9_linear_6_263" x1="18.9079" y1="11.853" x2="15.3159" y2="7.149" gradientUnits="userSpaceOnUse">
<stop offset="0.6" stop-color="#B6B6B6" stop-opacity="0"/>
<stop offset="0.89" stop-color="#919191"/>
</linearGradient>
<radialGradient id="paint10_radial_6_263" cx="0" cy="0" r="1" gradientUnits="userSpaceOnUse" gradientTransform="translate(26.106 7.178) rotate(122.716) scale(11.217 4.67902)">
<stop stop-color="white"/>
<stop offset="1" stop-color="white" stop-opacity="0"/>
</radialGradient>
<linearGradient id="paint11_linear_6_263" x1="20.71" y1="2.871" x2="26.085" y2="4.652" gradientUnits="userSpaceOnUse">
<stop stop-color="#CFC7D9"/>
<stop offset="1" stop-color="#CFC7D9" stop-opacity="0"/>
</linearGradient>
<linearGradient id="paint12_linear_6_263" x1="27.803" y1="8.146" x2="24.771" y2="6.396" gradientUnits="userSpaceOnUse">
<stop stop-color="white"/>
<stop offset="1" stop-color="white" stop-opacity="0"/>
</linearGradient>
<radialGradient id="paint13_radial_6_263" cx="0" cy="0" r="1" gradientUnits="userSpaceOnUse" gradientTransform="translate(14.5869 15.917) rotate(-142.106) scale(9.03091 9.24261)">
<stop stop-color="white"/>
<stop offset="1" stop-color="white" stop-opacity="0"/>
</radialGradient>
<linearGradient id="paint14_linear_6_263" x1="27.806" y1="13.645" x2="17.693" y2="26.474" gradientUnits="userSpaceOnUse">
<stop stop-color="white"/>
<stop offset="1" stop-color="white" stop-opacity="0"/>
</linearGradient>
<linearGradient id="paint15_linear_6_263" x1="15.9599" y1="30.496" x2="9.64795" y2="23.152" gradientUnits="userSpaceOnUse">
<stop stop-color="#DCBFF9"/>
<stop offset="1" stop-color="#DCBFF9" stop-opacity="0"/>
</linearGradient>
</defs>
</svg>
