<svg width="32" height="32" viewBox="0 0 32 32" fill="none" xmlns="http://www.w3.org/2000/svg">
<path d="M13.4854 5.98801L13.2147 10.18L13.188 10.736L13.068 10.7493C7.15069 11.4427 2.66669 16.488 2.66669 22.6667C2.66669 23.2765 2.71202 23.8796 2.80269 24.476C3.17469 26.936 3.45469 27.1747 5.16535 25.14C5.58952 24.6453 6.05328 24.186 6.55202 23.7667C8.34268 22.2867 10.5695 21.4352 12.8907 21.3427L13.192 21.336L13.2734 22.9747L13.4947 26.1013C13.6014 27.1733 14.7294 27.9053 15.7667 27.32C16.236 27.056 16.6934 26.7733 17.1534 26.4933C19.536 25.0027 21.7667 23.2893 23.94 21.5093C25.22 20.4427 26.34 19.432 27.2947 18.512C27.7347 18.0813 28.1747 17.6507 28.6 17.2053C29.216 16.56 29.2774 15.492 28.632 14.816C27.1467 13.2627 25.048 11.3173 22.436 9.25334C20.3187 7.59734 18.1294 6.05067 15.8094 4.69201C14.6934 4.05601 13.5867 4.92801 13.4854 5.98801Z" fill="url(#paint0_linear_22_429)"/>
<defs>
<linearGradient id="paint0_linear_22_429" x1="15.8782" y1="4.47633" x2="15.8782" y2="27.5274" gradientUnits="userSpaceOnUse">
<stop stop-color="#F3DE8A"/>
<stop offset="1" stop-color="#EB9486"/>
</linearGradient>
</defs>
</svg>
