<svg width="32" height="32" viewBox="0 0 32 32" fill="none" xmlns="http://www.w3.org/2000/svg">
<path d="M16.7907 31.0107L16.776 31.0133L16.6814 31.06L16.6547 31.0653L16.636 31.06L16.5414 31.0133C16.5272 31.0089 16.5165 31.0111 16.5094 31.02L16.504 31.0333L16.4814 31.604L16.488 31.6307L16.5014 31.648L16.64 31.7467L16.66 31.752L16.676 31.7467L16.8147 31.648L16.8307 31.6267L16.836 31.604L16.8134 31.0347C16.8098 31.0204 16.8023 31.0124 16.7907 31.0107ZM17.144 30.86L17.1267 30.8627L16.88 30.9867L16.8667 31L16.8627 31.0147L16.8867 31.588L16.8934 31.604L16.904 31.6133L17.172 31.7373C17.1889 31.7418 17.2018 31.7382 17.2107 31.7267L17.216 31.708L17.1707 30.8893C17.1663 30.8733 17.1574 30.8636 17.144 30.86ZM16.1907 30.8627C16.1848 30.8591 16.1778 30.858 16.1711 30.8594C16.1644 30.8609 16.1585 30.865 16.1547 30.8707L16.1467 30.8893L16.1014 31.708C16.1023 31.724 16.1098 31.7347 16.124 31.74L16.144 31.7373L16.412 31.6133L16.4254 31.6027L16.4307 31.588L16.4534 31.0147L16.4494 30.9987L16.436 30.9853L16.1907 30.8627Z" fill="url(#paint0_linear_19_154)"/>
<path d="M13.4854 5.988L13.2147 10.18L13.188 10.736L13.068 10.7493C7.15069 11.4427 2.66669 16.488 2.66669 22.6667C2.66669 23.2764 2.71202 23.8796 2.80269 24.476C3.17469 26.936 3.45469 27.1747 5.16535 25.14C5.58952 24.6453 6.05328 24.186 6.55202 23.7667C8.34268 22.2867 10.5695 21.4352 12.8907 21.3427L13.192 21.336L13.2734 22.9747L13.4947 26.1013C13.6014 27.1733 14.7294 27.9053 15.7667 27.32C16.236 27.056 16.6934 26.7733 17.1534 26.4933C19.536 25.0027 21.7667 23.2893 23.94 21.5093C25.22 20.4427 26.34 19.432 27.2947 18.512C27.7347 18.0813 28.1747 17.6507 28.6 17.2053C29.216 16.56 29.2774 15.492 28.632 14.816C27.1467 13.2627 25.048 11.3173 22.436 9.25333C20.3187 7.59733 18.1294 6.05067 15.8094 4.692C14.6934 4.056 13.5867 4.928 13.4854 5.988Z" fill="url(#paint1_linear_19_154)"/>
<defs>
<linearGradient id="paint0_linear_19_154" x1="16.6587" y1="30.8588" x2="16.6587" y2="31.752" gradientUnits="userSpaceOnUse">
<stop stop-color="#FFFACC"/>
<stop offset="1" stop-color="#EDC5BF"/>
</linearGradient>
<linearGradient id="paint1_linear_19_154" x1="15.8782" y1="4.47633" x2="15.8782" y2="27.5274" gradientUnits="userSpaceOnUse">
<stop stop-color="#FFFACC"/>
<stop offset="1" stop-color="#EDC5BF"/>
</linearGradient>
</defs>
</svg>
